<?xml version="1.0" encoding="UTF-8" standalone="no"?>
<!-- Created with Inkscape (http://www.inkscape.org/) -->

<svg
   xmlns:dc="http://purl.org/dc/elements/1.1/"
   xmlns:cc="http://creativecommons.org/ns#"
   xmlns:rdf="http://www.w3.org/1999/02/22-rdf-syntax-ns#"
   xmlns:svg="http://www.w3.org/2000/svg"
   xmlns="http://www.w3.org/2000/svg"
   xmlns:sodipodi="http://sodipodi.sourceforge.net/DTD/sodipodi-0.dtd"
   xmlns:inkscape="http://www.inkscape.org/namespaces/inkscape"
   width="210mm"
   height="297mm"
   viewBox="0 0 210 297"
   version="1.1"
   id="svg8"
   sodipodi:docname="im_not_as_good_with_inkscape_as_prof_nelson.svg"
   inkscape:version="0.92.2 2405546, 2018-03-11">
  <defs
     id="defs2">
    <clipPath
       clipPathUnits="userSpaceOnUse"
       id="clipPath4683">
      <rect
         style="opacity:1;fill:#ff0000;fill-opacity:0.39751557;stroke:#000000;stroke-width:0.26499999;stroke-miterlimit:4;stroke-dasharray:0, 0.26499998, 0.52999997, 0.79499995, 1.05999994, 1.32499992, 1.5899999, 1.85499989, 2.11999987, 2.38499985, 2.64999984, 2.91499982, 3.17999981, 3.44499979, 3.70999977;stroke-dashoffset:0;stroke-opacity:1"
         id="rect4685"
         width="186.01959"
         height="139.51469"
         x="6.9490075"
         y="35.476765" />
    </clipPath>
    <clipPath
       clipPathUnits="userSpaceOnUse"
       id="clipPath4687">
      <rect
         style="opacity:1;fill:#ff0000;fill-opacity:0.39751557;stroke:#000000;stroke-width:0.26499999;stroke-miterlimit:4;stroke-dasharray:0, 0.26499998, 0.52999997, 0.79499995, 1.05999994, 1.32499992, 1.5899999, 1.85499989, 2.11999987, 2.38499985, 2.64999984, 2.91499982, 3.17999981, 3.44499979, 3.70999977;stroke-dashoffset:0;stroke-opacity:1"
         id="rect4689"
         width="186.01959"
         height="139.51469"
         x="6.9490075"
         y="35.476765" />
    </clipPath>
    <clipPath
       clipPathUnits="userSpaceOnUse"
       id="clipPath4691">
      <rect
         style="opacity:1;fill:#ff0000;fill-opacity:0.39751557;stroke:#000000;stroke-width:0.26499999;stroke-miterlimit:4;stroke-dasharray:0, 0.26499998, 0.52999997, 0.79499995, 1.05999994, 1.32499992, 1.5899999, 1.85499989, 2.11999987, 2.38499985, 2.64999984, 2.91499982, 3.17999981, 3.44499979, 3.70999977;stroke-dashoffset:0;stroke-opacity:1"
         id="rect4693"
         width="186.01959"
         height="139.51469"
         x="6.9490075"
         y="35.476765" />
    </clipPath>
    <clipPath
       clipPathUnits="userSpaceOnUse"
       id="clipPath4695">
      <rect
         style="opacity:1;fill:#ff0000;fill-opacity:0.39751557;stroke:#000000;stroke-width:0.26499999;stroke-miterlimit:4;stroke-dasharray:0, 0.26499998, 0.52999997, 0.79499995, 1.05999994, 1.32499992, 1.5899999, 1.85499989, 2.11999987, 2.38499985, 2.64999984, 2.91499982, 3.17999981, 3.44499979, 3.70999977;stroke-dashoffset:0;stroke-opacity:1"
         id="rect4697"
         width="186.01959"
         height="139.51469"
         x="6.9490075"
         y="35.476765" />
    </clipPath>
    <clipPath
       clipPathUnits="userSpaceOnUse"
       id="clipPath4699">
      <rect
         style="opacity:1;fill:#ff0000;fill-opacity:0.39751557;stroke:#000000;stroke-width:0.26499999;stroke-miterlimit:4;stroke-dasharray:0, 0.26499998, 0.52999997, 0.79499995, 1.05999994, 1.32499992, 1.5899999, 1.85499989, 2.11999987, 2.38499985, 2.64999984, 2.91499982, 3.17999981, 3.44499979, 3.70999977;stroke-dashoffset:0;stroke-opacity:1"
         id="rect4701"
         width="186.01959"
         height="139.51469"
         x="6.9490075"
         y="35.476765" />
    </clipPath>
    <clipPath
       clipPathUnits="userSpaceOnUse"
       id="clipPath4703">
      <rect
         style="opacity:1;fill:#ff0000;fill-opacity:0.39751557;stroke:#000000;stroke-width:0.26499999;stroke-miterlimit:4;stroke-dasharray:0, 0.26499998, 0.52999997, 0.79499995, 1.05999994, 1.32499992, 1.5899999, 1.85499989, 2.11999987, 2.38499985, 2.64999984, 2.91499982, 3.17999981, 3.44499979, 3.70999977;stroke-dashoffset:0;stroke-opacity:1"
         id="rect4705"
         width="186.01959"
         height="139.51469"
         x="6.9490075"
         y="35.476765" />
    </clipPath>
    <clipPath
       clipPathUnits="userSpaceOnUse"
       id="clipPath4707">
      <rect
         style="opacity:1;fill:#ff0000;fill-opacity:0.39751557;stroke:#000000;stroke-width:0.26499999;stroke-miterlimit:4;stroke-dasharray:0, 0.26499998, 0.52999997, 0.79499995, 1.05999994, 1.32499992, 1.5899999, 1.85499989, 2.11999987, 2.38499985, 2.64999984, 2.91499982, 3.17999981, 3.44499979, 3.70999977;stroke-dashoffset:0;stroke-opacity:1"
         id="rect4709"
         width="186.01959"
         height="139.51469"
         x="6.9490075"
         y="35.476765" />
    </clipPath>
    <clipPath
       clipPathUnits="userSpaceOnUse"
       id="clipPath4711">
      <rect
         style="opacity:1;fill:#ff0000;fill-opacity:0.39751557;stroke:#000000;stroke-width:0.26499999;stroke-miterlimit:4;stroke-dasharray:0, 0.26499998, 0.52999997, 0.79499995, 1.05999994, 1.32499992, 1.5899999, 1.85499989, 2.11999987, 2.38499985, 2.64999984, 2.91499982, 3.17999981, 3.44499979, 3.70999977;stroke-dashoffset:0;stroke-opacity:1"
         id="rect4713"
         width="186.01959"
         height="139.51469"
         x="6.9490075"
         y="35.476765" />
    </clipPath>
    <clipPath
       clipPathUnits="userSpaceOnUse"
       id="clipPath4715">
      <rect
         style="opacity:1;fill:#ff0000;fill-opacity:0.39751557;stroke:#000000;stroke-width:0.26499999;stroke-miterlimit:4;stroke-dasharray:0, 0.26499998, 0.52999997, 0.79499995, 1.05999994, 1.32499992, 1.5899999, 1.85499989, 2.11999987, 2.38499985, 2.64999984, 2.91499982, 3.17999981, 3.44499979, 3.70999977;stroke-dashoffset:0;stroke-opacity:1"
         id="rect4717"
         width="186.01959"
         height="139.51469"
         x="6.9490075"
         y="35.476765" />
    </clipPath>
    <clipPath
       clipPathUnits="userSpaceOnUse"
       id="clipPath4719">
      <rect
         style="opacity:1;fill:#ff0000;fill-opacity:0.39751557;stroke:#000000;stroke-width:0.26499999;stroke-miterlimit:4;stroke-dasharray:0, 0.26499998, 0.52999997, 0.79499995, 1.05999994, 1.32499992, 1.5899999, 1.85499989, 2.11999987, 2.38499985, 2.64999984, 2.91499982, 3.17999981, 3.44499979, 3.70999977;stroke-dashoffset:0;stroke-opacity:1"
         id="rect4721"
         width="186.01959"
         height="139.51469"
         x="6.9490075"
         y="35.476765" />
    </clipPath>
    <clipPath
       clipPathUnits="userSpaceOnUse"
       id="clipPath4723">
      <rect
         style="opacity:1;fill:#ff0000;fill-opacity:0.39751557;stroke:#000000;stroke-width:0.26499999;stroke-miterlimit:4;stroke-dasharray:0, 0.26499998, 0.52999997, 0.79499995, 1.05999994, 1.32499992, 1.5899999, 1.85499989, 2.11999987, 2.38499985, 2.64999984, 2.91499982, 3.17999981, 3.44499979, 3.70999977;stroke-dashoffset:0;stroke-opacity:1"
         id="rect4725"
         width="186.01959"
         height="139.51469"
         x="6.9490075"
         y="35.476765" />
    </clipPath>
    <clipPath
       clipPathUnits="userSpaceOnUse"
       id="clipPath4727">
      <rect
         style="opacity:1;fill:#ff0000;fill-opacity:0.39751557;stroke:#000000;stroke-width:0.26499999;stroke-miterlimit:4;stroke-dasharray:0, 0.26499998, 0.52999997, 0.79499995, 1.05999994, 1.32499992, 1.5899999, 1.85499989, 2.11999987, 2.38499985, 2.64999984, 2.91499982, 3.17999981, 3.44499979, 3.70999977;stroke-dashoffset:0;stroke-opacity:1"
         id="rect4729"
         width="186.01959"
         height="139.51469"
         x="6.9490075"
         y="35.476765" />
    </clipPath>
    <clipPath
       clipPathUnits="userSpaceOnUse"
       id="clipPath4731">
      <rect
         style="opacity:1;fill:#ff0000;fill-opacity:0.39751557;stroke:#000000;stroke-width:0.26499999;stroke-miterlimit:4;stroke-dasharray:0, 0.26499998, 0.52999997, 0.79499995, 1.05999994, 1.32499992, 1.5899999, 1.85499989, 2.11999987, 2.38499985, 2.64999984, 2.91499982, 3.17999981, 3.44499979, 3.70999977;stroke-dashoffset:0;stroke-opacity:1"
         id="rect4733"
         width="186.01959"
         height="139.51469"
         x="6.9490075"
         y="35.476765" />
    </clipPath>
    <clipPath
       clipPathUnits="userSpaceOnUse"
       id="clipPath4735">
      <rect
         style="opacity:1;fill:#ff0000;fill-opacity:0.39751557;stroke:#000000;stroke-width:0.26499999;stroke-miterlimit:4;stroke-dasharray:0, 0.26499998, 0.52999997, 0.79499995, 1.05999994, 1.32499992, 1.5899999, 1.85499989, 2.11999987, 2.38499985, 2.64999984, 2.91499982, 3.17999981, 3.44499979, 3.70999977;stroke-dashoffset:0;stroke-opacity:1"
         id="rect4737"
         width="186.01959"
         height="139.51469"
         x="6.9490075"
         y="35.476765" />
    </clipPath>
    <clipPath
       clipPathUnits="userSpaceOnUse"
       id="clipPath4739">
      <rect
         style="opacity:1;fill:#ff0000;fill-opacity:0.39751557;stroke:#000000;stroke-width:0.26499999;stroke-miterlimit:4;stroke-dasharray:0, 0.26499998, 0.52999997, 0.79499995, 1.05999994, 1.32499992, 1.5899999, 1.85499989, 2.11999987, 2.38499985, 2.64999984, 2.91499982, 3.17999981, 3.44499979, 3.70999977;stroke-dashoffset:0;stroke-opacity:1"
         id="rect4741"
         width="186.01959"
         height="139.51469"
         x="6.9490075"
         y="35.476765" />
    </clipPath>
    <clipPath
       clipPathUnits="userSpaceOnUse"
       id="clipPath4743">
      <rect
         style="opacity:1;fill:#ff0000;fill-opacity:0.39751557;stroke:#000000;stroke-width:0.26499999;stroke-miterlimit:4;stroke-dasharray:0, 0.26499998, 0.52999997, 0.79499995, 1.05999994, 1.32499992, 1.5899999, 1.85499989, 2.11999987, 2.38499985, 2.64999984, 2.91499982, 3.17999981, 3.44499979, 3.70999977;stroke-dashoffset:0;stroke-opacity:1"
         id="rect4745"
         width="186.01959"
         height="139.51469"
         x="6.9490075"
         y="35.476765" />
    </clipPath>
    <clipPath
       clipPathUnits="userSpaceOnUse"
       id="clipPath4747">
      <rect
         style="opacity:1;fill:#ff0000;fill-opacity:0.39751557;stroke:#000000;stroke-width:0.26499999;stroke-miterlimit:4;stroke-dasharray:0, 0.26499998, 0.52999997, 0.79499995, 1.05999994, 1.32499992, 1.5899999, 1.85499989, 2.11999987, 2.38499985, 2.64999984, 2.91499982, 3.17999981, 3.44499979, 3.70999977;stroke-dashoffset:0;stroke-opacity:1"
         id="rect4749"
         width="186.01959"
         height="139.51469"
         x="6.9490075"
         y="35.476765" />
    </clipPath>
  </defs>
  <sodipodi:namedview
     id="base"
     pagecolor="#ffffff"
     bordercolor="#666666"
     borderopacity="1.0"
     inkscape:pageopacity="0.0"
     inkscape:pageshadow="2"
     inkscape:zoom="1.979899"
     inkscape:cx="315.53571"
     inkscape:cy="674.28571"
     inkscape:document-units="mm"
     inkscape:current-layer="layer1"
     showgrid="false"
     inkscape:window-width="2852"
     inkscape:window-height="1732"
     inkscape:window-x="12"
     inkscape:window-y="52"
     inkscape:window-maximized="1" />
  <metadata
     id="metadata5">
    <rdf:RDF>
      <cc:Work
         rdf:about="">
        <dc:format>image/svg+xml</dc:format>
        <dc:type
           rdf:resource="http://purl.org/dc/dcmitype/StillImage" />
      </cc:Work>
    </rdf:RDF>
  </metadata>
  <g
     inkscape:label="Layer 1"
     inkscape:groupmode="layer"
     id="layer1">
    <path
       style="fill:#00ff0a;stroke:#000000;stroke-width:0.26458332px;stroke-linecap:butt;stroke-linejoin:miter;stroke-opacity:1;fill-opacity:0.22360249"
       d="m 152.87817,48.973877 c -0.70722,0.0884 -1.43094,-0.0884 -2.13816,0 -0.36449,0.04556 -0.704,0.226706 -1.06908,0.267271 -0.44272,0.04919 -0.89311,-0.04433 -1.33634,0 -0.45202,0.0452 -0.88395,0.22614 -1.33635,0.267269 -0.53235,0.04839 -1.07093,-0.04439 -1.60362,0 -0.54004,0.045 -1.06502,0.207426 -1.60362,0.267269 -0.70836,0.07871 -1.4279,-0.05919 -2.13815,0 -0.62779,0.05232 -1.24351,0.210235 -1.87089,0.267269 -0.70979,0.06453 -1.42979,-0.07871 -2.13816,0 -0.45149,0.05017 -0.88485,0.217104 -1.33634,0.267272 -0.70836,0.0787 -1.4298,-0.07871 -2.13816,0 -1.33376,0.148195 -1.07832,0.231727 -2.13815,0.534537 -0.3532,0.100912 -0.71589,0.166357 -1.06908,0.267269 -0.27089,0.0774 -0.52292,0.227428 -0.80181,0.267272 -0.35278,0.05039 -0.7163,-0.0504 -1.06908,0 -0.27889,0.03984 -0.53092,0.189872 -0.80181,0.267268 -1.17945,0.336984 -0.84557,0.150046 -1.87089,0.534538 -0.44921,0.168458 -0.8812,0.382826 -1.33634,0.53454 -0.34848,0.116158 -0.7206,0.151112 -1.06908,0.267269 -0.56697,0.18899 -1.04404,0.591966 -1.60362,0.80181 -0.34394,0.128976 -0.72514,0.138292 -1.06907,0.267268 -4.43907,1.66465 1.74776,-0.481771 -1.87089,1.069078 -0.33763,0.144698 -0.72514,0.138293 -1.06908,0.267269 -1.3544,0.507902 -0.87679,0.547995 -2.13816,1.33635 -0.67572,0.422325 -1.48974,0.605922 -2.13815,1.069078 -0.30758,0.219694 -0.53454,0.534538 -0.80181,0.801806 -0.35636,0.35636 -0.71272,0.712719 -1.06908,1.069078 -0.53454,0.534541 -1.10582,1.034706 -1.60362,1.603619 -1.32498,1.514266 -0.34847,0.557556 -1.33634,2.138156 -1.53308,2.044102 -0.16235,0.08366 -1.33635,2.138156 -0.15937,0.278895 -0.42175,0.501044 -0.53454,0.801809 -0.15951,0.425347 -0.12362,0.905389 -0.26727,1.336347 -0.12599,0.377976 -0.37272,0.704996 -0.53454,1.069078 -0.19485,0.438415 -0.38282,0.881206 -0.53454,1.336347 -0.11616,0.348478 -0.15111,0.720603 -0.26727,1.069078 -0.15171,0.455144 -0.38282,0.881206 -0.53454,1.33635 -0.5104,1.531202 0.0347,0.732353 -0.8018,2.405425 -0.14366,0.287305 -0.37518,0.522912 -0.53455,0.801809 -0.49418,0.864817 -0.85261,1.801987 -1.33634,2.672694 -0.156,0.280797 -0.3643,0.529418 -0.53454,0.801809 -0.27533,0.440518 -0.49987,0.91363 -0.80181,1.336347 -0.14646,0.205049 -0.37322,0.34096 -0.53454,0.53454 -0.28517,0.342204 -0.52833,0.71746 -0.801808,1.069078 -0.350224,0.450289 -0.786054,0.841055 -1.069078,1.336347 -0.0884,0.154705 0.0884,0.379836 0,0.53454 -0.781865,1.368264 -0.862108,1.005793 -1.603616,1.870885 -0.371248,0.43312 -0.73751,0.872151 -1.069078,1.33635 -0.11579,0.162104 -0.142825,0.378981 -0.267272,0.534537 -0.236119,0.295151 -0.559832,0.51144 -0.801806,0.801809 -0.20564,0.246767 -0.328901,0.555043 -0.534541,0.80181 -0.483949,0.580739 -1.119669,1.022876 -1.603615,1.603615 -0.20564,0.246767 -0.333878,0.550979 -0.534541,0.80181 -0.157414,0.196765 -0.377126,0.337772 -0.534537,0.53454 -0.200666,0.250828 -0.333878,0.550979 -0.534541,0.801806 -1.057952,1.322441 0.05281,-0.320074 -1.336347,1.069079 -0.314981,0.314981 -0.511916,0.730869 -0.801809,1.069078 -0.245983,0.286983 -0.582115,0.494236 -0.801809,0.801809 -0.231577,0.32421 -0.313534,0.737571 -0.534538,1.069078 -0.139777,0.209664 -0.356359,0.356359 -0.53454,0.53454 -0.35636,0.445447 -0.766739,0.852604 -1.069078,1.336347 -0.149315,0.238903 -0.117954,0.562904 -0.267269,0.801809 -0.302339,0.483742 -0.73751,0.872152 -1.069078,1.336352 -0.11579,0.1621 -0.156768,0.36878 -0.267269,0.53453 -0.247092,0.37064 -0.554717,0.69845 -0.801809,1.06908 -0.288155,0.43223 -0.534541,0.8909 -0.801809,1.33635 -0.267269,0.44545 -0.549527,0.88224 -0.80181,1.33635 -0.347683,0.62583 -0.629761,1.1827 -0.801806,1.87088 -0.110178,0.44071 -0.123619,0.90539 -0.267272,1.33635 -0.125992,0.37798 -0.408545,0.6911 -0.534537,1.06908 -0.19027,0.57081 -0.277606,1.80592 -0.534541,2.40542 -0.126534,0.29525 -0.446294,0.49295 -0.534537,0.80181 -0.0979,0.34265 0.0442,0.71547 0,1.06908 -0.09112,0.72898 -0.461439,1.40715 -0.534541,2.13816 -0.05319,0.53188 0.05319,1.07173 0,1.60362 -0.03655,0.3655 -0.178178,0.71271 -0.267269,1.06907 0,0.53454 0.04839,1.07128 0,1.60362 -0.04113,0.45241 -0.267268,0.88208 -0.267268,1.33635 0,0.36733 0.267268,0.70175 0.267268,1.06908 0,2.82251 -0.547158,0.42095 -0.267268,2.93996 0.04056,0.36508 0.226705,0.704 0.267268,1.06908 0.04919,0.44272 -0.04919,0.89362 0,1.33635 0.04057,0.36508 0.178181,0.71272 0.267269,1.06908 0.08909,0.35636 0.178181,0.71271 0.267272,1.06907 0.08909,0.35636 0.122571,0.73146 0.267269,1.06908 0.126534,0.29525 0.390884,0.5145 0.534537,0.80181 0.214559,0.42911 0.296511,0.9198 0.534541,1.33635 0.125018,0.21878 0.356359,0.35636 0.534537,0.53454 0.35636,0.35636 0.737214,0.6898 1.069078,1.06907 0.293331,0.33524 0.463601,0.77919 0.80181,1.06908 0.302506,0.25929 0.744868,0.30296 1.069078,0.53454 0.307572,0.2197 0.499427,0.57502 0.801809,0.80181 0.415584,0.31169 0.904116,0.51365 1.336347,0.80181 0.370636,0.24709 0.691337,0.56572 1.069078,0.80181 0.337862,0.21116 0.720796,0.34105 1.069078,0.53454 1.34933,0.74962 1.123786,0.76673 2.405427,1.33634 0.438412,0.19485 0.907233,0.31999 1.336347,0.53454 0.464635,0.23232 0.871712,0.56949 1.336347,0.80181 0.429115,0.21456 0.897935,0.33969 1.336347,0.53454 1.093433,0.48597 1.186551,0.70342 2.405428,1.06908 0.435112,0.13053 0.901234,0.13673 1.336347,0.26727 0.459531,0.13786 0.876818,0.39668 1.336347,0.53454 0.435108,0.13053 0.889408,0.186 1.336348,0.26727 1.06634,0.19388 2.13816,0.35636 3.20724,0.53454 0.89372,0.14895 2.61473,0.44856 3.4745,0.53454 0.26594,0.0266 0.53454,0 0.80181,0 0.53454,0 1.06908,0 1.60361,0 0.44545,0 0.8909,0 1.33635,0 0.62363,0 1.24941,0.0518 1.87089,0 0.4527,-0.0377 0.8894,-0.18601 1.33634,-0.26728 0.6112,-0.11112 2.27977,-0.35448 2.93997,-0.53453 0.5436,-0.14826 1.07604,-0.3367 1.60362,-0.53454 0.18652,-0.07 0.35636,-0.17818 0.53454,-0.26727 0.35635,-0.17818 0.73121,-0.32338 1.06907,-0.53454 0.37774,-0.23609 0.69134,-0.56572 1.06908,-0.80181 0.33786,-0.21116 0.73757,-0.31353 1.06908,-0.53454 0.20966,-0.13977 0.33777,-0.37712 0.53454,-0.53454 0.25083,-0.20066 0.55098,-0.33387 0.80181,-0.53454 0.19676,-0.15741 0.35636,-0.35636 0.53454,-0.53454 0.26727,-0.26726 0.53454,-0.53454 0.80181,-0.8018 0.53453,-0.53454 1.06907,-1.06908 1.60361,-1.60362 0.35636,-0.35636 0.73722,-0.68981 1.06908,-1.06908 0.29333,-0.33523 0.48683,-0.7541 0.80181,-1.06908 0.31498,-0.31498 0.71746,-0.52833 1.06908,-0.80181 0.45029,-0.35022 0.86901,-0.74194 1.33634,-1.06907 0.85115,-0.59581 1.82727,-0.99974 2.6727,-1.60362 1.49813,-1.07009 -0.81364,0.007 1.60362,-1.33635 0.41939,-0.23299 0.90723,-0.31998 1.33635,-0.53454 0.57461,-0.28731 1.04582,-0.75034 1.60361,-1.06908 3.89309,-2.22462 -1.12759,0.69744 1.87089,-0.8018 0.2873,-0.14366 0.5145,-0.39089 0.80181,-0.53454 0.50397,-0.25199 1.08046,-0.32528 1.60361,-0.53454 0.18497,-0.074 0.3392,-0.22821 0.53454,-0.26727 0.26208,-0.0524 0.53973,0.0524 0.80181,0 0.19535,-0.0391 0.34958,-0.19329 0.53454,-0.26727 0.26158,-0.10463 0.52555,-0.21202 0.80181,-0.26727 0.17472,-0.0349 0.35982,0.0349 0.53454,0 0.55251,-0.1105 1.05111,-0.42404 1.60362,-0.53454 0.17472,-0.0349 0.35982,0.0349 0.53454,0 0.70267,-0.14054 1.22462,-0.5433 1.87088,-0.80181 0.26158,-0.10463 0.54023,-0.16264 0.80181,-0.26727 0.18496,-0.074 0.34958,-0.19328 0.53454,-0.26727 0.26158,-0.10463 0.54023,-0.16264 0.80181,-0.26727 0.18496,-0.074 0.34958,-0.19328 0.53454,-0.26727 0.52315,-0.20926 1.06908,-0.35636 1.60361,-0.53454 0.53454,-0.17817 1.06185,-0.37974 1.60362,-0.53453 0.35319,-0.10092 0.71589,-0.16636 1.06908,-0.26728 0.27089,-0.0774 0.52391,-0.22095 0.80181,-0.26726 0.26363,-0.0439 0.53973,0.0524 0.80181,0 0.39068,-0.0781 0.67839,-0.45641 1.06907,-0.53454 0.26208,-0.0524 0.53974,0.0524 0.80181,0 0.48375,0.16109 0.49708,-0.43296 0.80181,-0.53454 0.16904,-0.0564 0.36551,0.0563 0.53454,0 0.11953,-0.0398 0.16244,-0.19738 0.26727,-0.26727 0.16575,-0.1105 0.39368,-0.12641 0.53454,-0.26727 0.14086,-0.14086 0.12641,-0.39368 0.26727,-0.53454 0.14086,-0.14086 0.39367,-0.12641 0.53454,-0.26727 0.14086,-0.14086 0.12641,-0.39368 0.26727,-0.53454 0.14086,-0.14086 0.39367,-0.1264 0.53454,-0.26727 0.14086,-0.14086 0.15676,-0.36879 0.26727,-0.53454 0.0699,-0.10483 0.19738,-0.16243 0.26727,-0.26727 0.1105,-0.16575 0.14774,-0.37517 0.26727,-0.53454 0.15118,-0.20158 0.40489,-0.31846 0.53453,-0.53454 0.14495,-0.24157 0.1563,-0.54286 0.26727,-0.80181 0.15695,-0.3662 0.40855,-0.69109 0.53454,-1.06907 0.0563,-0.16904 -0.0563,-0.3655 0,-0.53454 0.126,-0.37798 0.39465,-0.69602 0.53454,-1.06908 0.12898,-0.34394 0.17818,-0.71272 0.26727,-1.06908 0.26727,-1.06908 0.53454,-2.13815 0.80181,-3.20723 0.22821,-0.91282 0.50466,-1.78125 0.80181,-2.6727 0.0891,-0.26727 0.17818,-0.53454 0.26727,-0.8018 0.0891,-0.26728 0.22743,-0.52292 0.26727,-0.80181 0.0504,-0.35278 -0.0442,-0.71547 0,-1.06908 0.0456,-0.36449 0.21532,-0.70544 0.26727,-1.06908 0.0378,-0.26458 0,-0.53454 0,-0.80181 0,-0.35636 0,-0.71272 0,-1.06908 0,-0.35636 0,-0.71272 0,-1.06907 0,-0.35636 0.0442,-0.71548 0,-1.06908 -0.0456,-0.364493 -0.21533,-0.705446 -0.26727,-1.069081 -0.0378,-0.264583 0,-0.53454 0,-0.801809 0,-0.623628 0,-1.247257 0,-1.870887 0,-1.425438 0,-2.850875 0,-4.276313 0,-0.267268 0,-0.534537 0,-0.801806 0,-0.267272 0.0439,-0.538176 0,-0.801809 -0.73251,-2.19751 0.0939,0.563454 -0.26727,-1.603619 -0.0926,-0.555786 -0.44191,-1.047829 -0.53454,-1.603615 -0.0439,-0.263634 0.0439,-0.538176 0,-0.80181 -0.0463,-0.277894 -0.17818,-0.53454 -0.26727,-0.801809 -0.21184,-0.6355 -0.42267,-1.199689 -0.53454,-1.870887 -0.0293,-0.175755 0,-0.356359 0,-0.534538 -0.0891,-0.267269 -0.21202,-0.525552 -0.26727,-0.801809 -0.0349,-0.17472 0.0432,-0.36168 0,-0.534538 -0.0483,-0.193265 -0.2282,-0.339198 -0.26727,-0.53454 0,-2.038903 0.11953,0.210836 -0.26727,-1.336347 -0.0864,-0.34572 0.0864,-0.72336 0,-1.069078 -0.0483,-0.193262 -0.21895,-0.341275 -0.26727,-0.53454 -0.0432,-0.172861 0,-0.35636 0,-0.534538 0,-0.44545 0.0874,-0.899549 0,-1.336347 -0.0391,-0.195344 -0.21895,-0.341278 -0.26727,-0.53454 -0.0864,-0.345721 0.0864,-0.723358 0,-1.069078 -0.0483,-0.193263 -0.21895,-0.341276 -0.26727,-0.534541 -0.0432,-0.172857 0.0432,-0.361677 0,-0.534537 -0.0483,-0.193263 -0.21895,-0.341276 -0.26727,-0.534541 -0.0432,-0.172857 0.0432,-0.361677 0,-0.534537 -0.13269,-0.530768 -0.66911,-1.072851 -0.8018,-1.603619 -0.0432,-0.172857 0.0563,-0.365501 0,-0.534538 -0.0399,-0.119525 -0.19739,-0.162438 -0.26727,-0.267268 -0.11051,-0.165754 -0.15677,-0.368787 -0.26727,-0.534541 -0.0699,-0.10483 -0.21093,-0.154577 -0.26727,-0.267269 -0.0398,-0.07968 0.0398,-0.187584 0,-0.267268 -0.11269,-0.225383 -0.42185,-0.309158 -0.53454,-0.534541 -0.0398,-0.07968 0.063,-0.204274 0,-0.267269 -0.063,-0.063 -0.20427,0.063 -0.26727,0 -0.063,-0.063 0.063,-0.204274 0,-0.267269 -0.063,-0.063 -0.18759,0.03984 -0.26727,0 -0.22538,-0.112691 -0.30916,-0.421849 -0.53454,-0.53454 -0.0797,-0.03984 -0.18759,0.03984 -0.26727,0 -0.11269,-0.05635 -0.15458,-0.210923 -0.26727,-0.267269 -0.0797,-0.03984 -0.18759,0.03984 -0.26727,0 -0.88642,-0.886423 0.25199,0.125992 -0.53454,-0.267269 -0.11269,-0.05635 -0.15458,-0.210925 -0.26727,-0.267271 -0.0797,-0.03984 -0.18758,0.03984 -0.26727,0 -0.22538,-0.112689 -0.30915,-0.421846 -0.53454,-0.534538 -0.0797,-0.03984 -0.18758,0.03984 -0.26726,0 -0.1127,-0.05634 -0.15458,-0.210926 -0.26728,-0.267269 -0.0797,-0.03984 -0.18758,0.03984 -0.26727,0 -0.11269,-0.05634 -0.15457,-0.210925 -0.26726,-0.267271 -0.0797,-0.03984 -0.20428,0.063 -0.26727,0 -0.55299,-0.55299 0.84504,0.02162 -0.26727,-0.534538 -0.0797,-0.03984 -0.18759,0.03984 -0.26727,0 -0.263,-0.1315 -0.80608,-0.937577 -1.06908,-1.069078 -0.0797,-0.03984 -0.20428,0.063 -0.26727,0 -0.063,-0.063 0.0398,-0.187587 0,-0.267269 -0.0564,-0.112691 -0.21092,-0.15458 -0.26727,-0.267271 -0.0398,-0.07968 0.0398,-0.187584 0,-0.267269 -0.55616,-1.112311 0.0184,0.285721 -0.53454,-0.267269 -0.063,-0.063 0.063,-0.204274 0,-0.267269 -0.063,-0.063 -0.20427,0.063 -0.26727,0 -0.12599,-0.125994 0.12599,-0.408548 0,-0.53454 -0.063,-0.063 -0.20427,0.063 -0.26727,0 -0.063,-0.063 0.0398,-0.187584 0,-0.267269 -0.0563,-0.112691 -0.21092,-0.15458 -0.26727,-0.267269 -0.0797,-0.159369 0.12599,-0.408548 0,-0.53454 -0.063,-0.063 -0.20427,0.063 -0.26727,0 -0.063,-0.063 0.0399,-0.187584 0,-0.267269 -0.0563,-0.112691 -0.22743,-0.147743 -0.26727,-0.267271 -0.0563,-0.169035 0,-0.35636 0,-0.534538 0,-0.08909 0.0398,-0.187584 0,-0.267269 -0.0563,-0.112691 -0.21092,-0.15458 -0.26726,-0.267272 -0.0399,-0.07968 0.0398,-0.187584 0,-0.267268 -0.0564,-0.112692 -0.21093,-0.154578 -0.26728,-0.267269 -0.0398,-0.07968 0.0399,-0.187585 0,-0.267269 -0.0563,-0.112691 -0.21092,-0.15458 -0.26727,-0.267272 -0.1069,-0.213815 0.10691,-0.587991 0,-0.801806 -0.0563,-0.112691 -0.21092,-0.15458 -0.26726,-0.267272 -0.0843,-0.168611 0.0843,-1.167733 0,-1.336347 -0.0563,-0.112691 -0.21093,-0.154577 -0.26727,-0.267268 -0.0407,-0.08134 0,-0.681443 0,-0.80181 0,-0.712718 0,-1.425437 0,-2.138156 0,-0.08909 0,-0.178178 0,-0.267269 0,-0.08909 0.063,-0.204274 0,-0.267268 -0.063,-0.063 -0.20428,0.06299 -0.26727,0 -0.063,-0.063 0,-0.178181 0,-0.267272 0,-0.08909 0,-0.178178 0,-0.267269 0,-0.44545 0,-0.890897 0,-1.336347 0,-0.08909 0,-0.178181 0,-0.267268 0,-0.08909 0.0458,-0.190876 0,-0.267272 -0.22919,-0.381968 -0.53454,-0.712719 -0.80181,-1.069078 z"
       id="path3715"
       inkscape:connector-curvature="0"
       clip-path="url(#clipPath4747)" />
    <ellipse
       id="path3717"
       cx="34.395832"
       cy="99.46019"
       rx="20.032738"
       ry="21.497396"
       style="stroke-width:0.265;fill:#ffffff;stroke:#000000;stroke-opacity:1;stroke-miterlimit:4;stroke-dasharray:none"
       clip-path="url(#clipPath4743)" />
    <path
       style="fill:none;stroke:#000000;stroke-width:0.26458332px;stroke-linecap:butt;stroke-linejoin:miter;stroke-opacity:1"
       d="m 28.348215,125.5878 c 0.09449,0.12599 0.172119,0.26661 0.283482,0.37797 0.02228,0.0223 0.06632,-0.0141 0.09449,0 0.112266,0.0561 0.07672,0.13286 0.188987,0.18899 0.02817,0.0141 0.06632,-0.0141 0.0945,0 0.07969,0.0398 0.109302,0.14915 0.188987,0.18899 0.02817,0.0141 0.06632,-0.0141 0.0945,0 0.03984,0.0199 0.05465,0.0746 0.09449,0.0945 0.02817,0.0141 0.06632,-0.0141 0.09449,0 0.03984,0.0199 0.063,0.063 0.09449,0.0945 0.0315,0.0315 0.06979,0.0574 0.0945,0.0945 0.03907,0.0586 0.05223,0.13264 0.09449,0.18899 0.05345,0.0713 0.125992,0.12599 0.188989,0.18899 0.188986,0.18898 0.377976,0.37797 0.566962,0.56696 0.063,0.063 0.133334,0.11942 0.188989,0.18899 0.07095,0.0887 0.116285,0.19624 0.188987,0.28348 0.08555,0.10266 0.188989,0.18899 0.283483,0.28348 0.0945,0.0945 0.197932,0.18082 0.283482,0.28348 0.206632,0.24796 0.133609,0.2892 0.377976,0.47248 0.537345,0.403 -0.20066,-0.29516 0.377976,0.28348 0.04256,0.0426 0.240347,0.2691 0.283482,0.28348 0.05976,0.0199 0.129225,-0.0199 0.188989,0 0.08452,0.0282 0.109305,0.14915 0.188987,0.18899 0.02817,0.0141 0.063,0 0.0945,0 0.063,0.0315 0.130384,0.0554 0.188987,0.0945 0.07413,0.0494 0.125991,0.12599 0.188989,0.18899 0.06299,0.063 0.125992,0.12599 0.188986,0.18899 0.0315,0.0315 0.06979,0.0574 0.0945,0.0945 0.03907,0.0586 0.04469,0.13919 0.09449,0.18899 0.0498,0.0498 0.139186,0.0447 0.188989,0.0945 0.0498,0.0498 0.05542,0.13038 0.09449,0.18898 0.02471,0.0371 0.07457,0.0547 0.09449,0.0945 0.01408,0.0282 -0.01407,0.0663 0,0.0945 0.07877,0.15754 0.18899,0.0427 0.18899,0.28348"
       id="path4524"
       inkscape:connector-curvature="0"
       clip-path="url(#clipPath4739)" />
    <path
       style="fill:none;stroke:#000000;stroke-width:0.26458332px;stroke-linecap:butt;stroke-linejoin:miter;stroke-opacity:1"
       d="m 33.072916,126.81622 c -0.309615,0.25526 -0.546057,0.58954 -0.850447,0.85044 -0.08622,0.0739 -0.196236,0.11629 -0.28348,0.18899 -0.102661,0.0855 -0.18202,0.19652 -0.283483,0.28349 -0.119575,0.10249 -0.258402,0.18098 -0.377975,0.28348 -0.101466,0.087 -0.180822,0.19793 -0.283483,0.28348 -0.08725,0.0727 -0.188989,0.12599 -0.283483,0.18899 -0.09449,0.063 -0.1861,0.13056 -0.283482,0.18899 -0.281339,0.1688 -0.191132,0.0202 -0.472469,0.18898 -0.0764,0.0458 -0.117719,0.13554 -0.188989,0.18899 -0.05635,0.0423 -0.125992,0.063 -0.18899,0.0945 -0.06299,0.0315 -0.120658,0.0774 -0.188986,0.0945 -0.06112,0.0153 -0.129225,-0.0199 -0.188989,0 -0.08452,0.0282 -0.109302,0.14915 -0.188987,0.18899 -0.02817,0.0141 -0.06632,-0.0141 -0.0945,0 -0.07968,0.0398 -0.109302,0.14914 -0.188987,0.18899 -0.02817,0.0141 -0.07222,-0.0223 -0.09449,0 -0.02228,0.0223 0.02228,0.0722 0,0.0945 -0.02228,0.0223 -0.07222,-0.0223 -0.0945,0 -0.02228,0.0223 0.01408,0.0663 0,0.0945 -0.01992,0.0399 -0.06299,0.063 -0.09449,0.0945"
       id="path4526"
       inkscape:connector-curvature="0"
       clip-path="url(#clipPath4735)" />
    <path
       style="fill:none;stroke:#000000;stroke-width:0.26458332px;stroke-linecap:butt;stroke-linejoin:miter;stroke-opacity:1"
       d="m 125.77158,147.32143 c 0.18898,0.15749 0.37656,0.31668 0.56696,0.47247 0.1561,0.12771 0.32256,0.24305 0.47247,0.37797 0.43043,0.38739 0.80508,0.83331 1.22842,1.22843 0.2123,0.19814 0.45612,0.36162 0.66146,0.56696 0.14261,0.14261 0.23536,0.32986 0.37798,0.47247 0.29964,0.29965 0.63635,0.56001 0.94494,0.85045 0.38925,0.36635 0.74115,0.77136 1.13393,1.13392 0.24603,0.22711 0.51059,0.43363 0.75595,0.66146 1.93371,1.93371 -0.38659,-0.33313 0.94494,0.85045 0.16647,0.14797 0.30692,0.32347 0.47247,0.47247 0.93275,0.83947 0.0477,-0.0266 0.85045,0.66146 0.9213,0.78969 -0.44387,-0.26203 0.66146,0.56696"
       id="path4528"
       inkscape:connector-curvature="0"
       clip-path="url(#clipPath4731)" />
    <path
       style="fill:none;stroke:#000000;stroke-width:0.26458332px;stroke-linecap:butt;stroke-linejoin:miter;stroke-opacity:1"
       d="m 140.32366,147.32143 c -0.20766,0.38052 -0.15059,0.82975 -0.28348,1.22842 -0.0759,0.22757 -0.1944,0.43873 -0.28348,0.66146 -0.20248,0.50619 -0.57005,1.58158 -0.75596,1.98437 -0.19489,0.42226 -0.44097,0.81895 -0.66146,1.22842 -0.22048,0.47248 -0.4457,0.94276 -0.66146,1.41742 -0.88943,1.95675 -1.67798,3.95033 -2.45684,5.95312 -0.3795,0.97585 -0.77196,1.94683 -1.13393,2.92931 -0.23073,0.62628 -0.44388,1.25892 -0.66145,1.88989 -0.0974,0.28249 -0.17711,0.5712 -0.28349,0.85044 -0.55008,1.44398 -0.33908,0.7806 -0.94494,2.07887 -0.0717,0.15371 -0.10776,0.32356 -0.18899,0.47247 -0.10876,0.1994 -0.25603,0.37534 -0.37797,0.56697 -0.26124,0.41051 -0.26185,0.49447 -0.56697,0.85044 -0.087,0.10147 -0.18898,0.18899 -0.28348,0.28349 -0.063,0.063 -0.11772,0.13553 -0.18899,0.18898 -0.53734,0.40301 0.20066,-0.29515 -0.37797,0.28349"
       id="path4530"
       inkscape:connector-curvature="0"
       clip-path="url(#clipPath4727)" />
    <path
       style="fill:#0000ff;stroke:#000000;stroke-width:0.26458332px;stroke-linecap:butt;stroke-linejoin:miter;stroke-opacity:1;opacity:1;fill-opacity:0.5962733"
       d="m 137.86681,65.584077 c -0.57791,0.231167 -0.33133,0.0949 -0.75595,0.377976 -0.0945,0.063 -0.1948,0.118041 -0.28348,0.188986 -0.0696,0.05566 -0.11942,0.133335 -0.18899,0.18899 -0.0887,0.07094 -0.18899,0.125992 -0.28348,0.188989 -0.0945,0.063 -0.1861,0.130556 -0.28348,0.188987 -0.29442,0.176649 -0.12418,0.0048 -0.47247,0.283482 -0.57864,0.578639 0.15937,-0.119525 -0.37798,0.283483 -0.21167,0.15875 -0.3553,0.408215 -0.56696,0.566965 -0.0564,0.04226 -0.13265,0.05223 -0.18899,0.09449 -0.0713,0.05345 -0.12599,0.125992 -0.18899,0.188986 -0.063,0.063 -0.13553,0.117719 -0.18899,0.18899 -0.0423,0.05634 -0.0522,0.132643 -0.0945,0.188989 -0.48048,0.64063 0.10249,-0.262655 -0.37798,0.377976 -0.0423,0.05635 -0.0522,0.132641 -0.0945,0.188986 -0.15875,0.211667 -0.40822,0.355299 -0.56697,0.566965 -0.0423,0.05635 -0.0522,0.132644 -0.0945,0.18899 -0.12139,0.161843 -0.30341,0.276537 -0.47247,0.377975 -0.0604,0.03623 -0.13264,0.05223 -0.18899,0.09449 -0.0713,0.05345 -0.11942,0.133334 -0.18899,0.188989 -0.0887,0.07094 -0.1948,0.118041 -0.28348,0.188986 -0.67323,0.538586 0.40006,-0.20371 -0.47247,0.377976 -0.81242,0.541616 0.21548,-0.107738 -0.56696,0.283483 -0.10158,0.05079 -0.1791,0.144251 -0.28349,0.188989 -0.11936,0.05116 -0.2586,0.04334 -0.37797,0.09449 -0.10439,0.04474 -0.18191,0.1382 -0.28349,0.18899 -0.0891,0.04454 -0.18898,0.06299 -0.28347,0.09449 -0.0945,0.0315 -0.18899,0.06299 -0.28349,0.09449 -0.18899,0.063 -0.382,0.115004 -0.56696,0.188989 -0.0654,0.02617 -0.12066,0.07741 -0.18899,0.09449 -0.0611,0.01527 -0.12923,-0.01992 -0.18899,0 -0.0423,0.01408 -0.0574,0.06978 -0.0945,0.09449 -0.0176,0.01175 -0.37192,0.182933 -0.37798,0.188989 -0.0498,0.0498 -0.0447,0.139184 -0.0945,0.188987 -0.0498,0.0498 -0.13919,0.04469 -0.18899,0.0945 -0.0498,0.0498 -0.0583,0.128592 -0.0945,0.188986 -0.0584,0.09739 -0.11628,0.196239 -0.18898,0.283483 -0.0945,0.09449 -0.18899,0.188989 -0.28348,0.283482 -0.0315,0.063 -0.0505,0.133991 -0.0945,0.18899 -0.0835,0.104349 -0.20581,0.174738 -0.28348,0.283479 -0.46212,0.646965 0.0684,0.125802 -0.37798,0.661459 -0.0856,0.102661 -0.18899,0.188989 -0.28348,0.283482 -0.22049,0.220488 -0.46184,0.421915 -0.66146,0.661459 -0.0451,0.05411 -0.0447,0.139186 -0.0945,0.188989 -0.34043,0.340423 -0.33954,0.204197 -0.66146,0.472469 -0.30672,0.255598 -0.54373,0.594849 -0.85045,0.850447 -0.0872,0.0727 -0.1948,0.118042 -0.28348,0.188987 -0.0696,0.05566 -0.12599,0.125992 -0.18899,0.188989 -0.15749,0.157491 -0.31498,0.314981 -0.47247,0.472469 -0.18899,0.18899 -0.37797,0.377979 -0.56696,0.566965 -0.063,0.063 -0.13196,0.120547 -0.18899,0.18899 -0.20895,0.182649 -0.29901,0.453302 -0.47247,0.661458 -0.0856,0.102661 -0.20581,0.174739 -0.28348,0.283482 -0.0819,0.114623 -0.1191,0.255673 -0.18899,0.377976 -0.0564,0.0986 -0.12298,0.191066 -0.18899,0.283483 -0.0915,0.128153 -0.19194,0.249819 -0.28348,0.377976 -0.13202,0.184827 -0.25199,0.377975 -0.37798,0.566962 -0.063,0.0945 -0.12599,0.188989 -0.18898,0.283482 -0.063,0.0945 -0.1382,0.181904 -0.18899,0.283483 -0.0446,0.08909 -0.0575,0.191 -0.0945,0.283483 -0.0262,0.06539 -0.0774,0.120657 -0.0945,0.188989 -0.0153,0.06111 0.0153,0.12787 0,0.188986 -0.0171,0.06833 -0.0774,0.120661 -0.0945,0.18899 -0.0153,0.06111 0.0153,0.127873 0,0.188986 -0.0171,0.06833 -0.0774,0.120661 -0.0945,0.188989 -0.016,0.06395 0,0.60065 0,0.661459 0,0.15749 0,0.314978 0,0.472469 0,0.063 -0.0124,0.127217 0,0.188989 0.0195,0.09767 0.075,0.185812 0.0945,0.283483 0.0124,0.06177 -0.0123,0.127214 0,0.188986 0.0391,0.195342 0.13426,0.37542 0.18899,0.566965 0.0357,0.124873 0.0489,0.256376 0.0945,0.377976 0.13334,0.355571 0.38206,0.621358 0.56696,0.944941 0.0699,0.122303 0.1191,0.255672 0.18899,0.377976 0.12725,0.222694 0.3276,0.458647 0.47247,0.661458 0.066,0.09241 0.11628,0.196236 0.18899,0.283482 0.0856,0.102661 0.19793,0.180822 0.28348,0.283483 0.0727,0.08724 0.10868,0.203176 0.18899,0.283482 0.0803,0.0803 0.19623,0.116282 0.28348,0.188987 0.10266,0.08555 0.18082,0.197932 0.28348,0.283483 0.17449,0.145409 0.37798,0.251983 0.56697,0.377975 0.0945,0.063 0.1819,0.1382 0.28348,0.18899 0.0891,0.04454 0.19193,0.05526 0.28348,0.09449 0.12947,0.05549 0.2485,0.133501 0.37798,0.188989 0.27276,0.116898 0.44877,0.120724 0.75595,0.188987 0.12678,0.02817 0.2531,0.05882 0.37798,0.0945 0.0958,0.02736 0.18487,0.08041 0.28348,0.09449 0.24945,0.03564 0.5065,-0.03564 0.75595,0 0.0986,0.01408 0.18488,0.08041 0.28348,0.09449 0.12473,0.01781 0.25199,0 0.37798,0 0.22048,0 0.44097,0 0.66146,0 0.0945,0 0.18971,0.01172 0.28348,0 0.15937,-0.01992 0.31347,-0.07178 0.47247,-0.09449 0.0624,-0.0089 0.12662,0.0089 0.18899,0 0.15899,-0.0227 0.31284,-0.07676 0.47247,-0.09449 0.12522,-0.01392 0.25325,0.01781 0.37797,0 0.0986,-0.01408 0.18771,-0.06713 0.28349,-0.0945 0.24974,-0.07136 0.5062,-0.117631 0.75595,-0.188987 0.0958,-0.02737 0.18488,-0.08041 0.28348,-0.0945 0.12473,-0.01781 0.25325,0.01783 0.37798,0 0.002,-2.64e-4 0.55848,-0.186563 0.56696,-0.188986 1.12409,-0.32117 -0.22807,0.05376 0.66146,-0.09449 0.0983,-0.01638 0.18685,-0.07034 0.28348,-0.0945 1.74145,-0.348289 -0.40631,0.101579 0.75595,-0.188986 1.30782,-0.326954 -0.12509,0.03137 0.75595,-0.0945 0.7566,-0.108085 -5.2e-4,-0.0809 0.75596,-0.188987 0.0935,-0.01336 0.18899,0 0.28348,0 0.34648,0 0.69296,0 1.03944,0 0.18898,0 0.37797,0 0.56696,0 0.0945,0 0.19027,-0.01553 0.28348,0 0.0983,0.01638 0.18899,0.063 0.28348,0.09449 0.0945,0.0315 0.18899,0.063 0.28349,0.09449 0.0945,0.0315 0.18899,0.063 0.28348,0.0945 0.0945,0.0315 0.19807,0.04325 0.28348,0.09449 0.0764,0.04584 0.12055,0.131953 0.18899,0.188989 0.12099,0.100822 0.25699,0.182658 0.37797,0.28348 0.13689,0.11407 0.25199,0.251984 0.37798,0.377979 0.0945,0.09449 0.19793,0.180819 0.28348,0.28348 0.0727,0.08725 0.10869,0.203178 0.18899,0.283482 0.0803,0.08031 0.20318,0.108686 0.28348,0.188989 0.0803,0.0803 0.11804,0.1948 0.18899,0.283483 0.0556,0.06957 0.12599,0.125992 0.18899,0.188986 0.15749,0.157491 0.31498,0.314982 0.47247,0.472472 0.063,0.063 0.13333,0.11942 0.18899,0.188987 0.0709,0.08868 0.11804,0.194802 0.18899,0.283482 0.0557,0.06957 0.13333,0.11942 0.18898,0.188989 0.0709,0.08868 0.10869,0.203177 0.18899,0.283483 0.11136,0.11136 0.25699,0.182658 0.37798,0.28348 0.12599,0.104994 0.36223,0.393726 0.47247,0.472472 0.11462,0.08187 0.26077,0.110849 0.37797,0.188986 0.0741,0.04942 0.10931,0.149146 0.18899,0.188989 0.11616,0.05808 0.25861,0.04334 0.37798,0.09449 0.10438,0.04474 0.1819,0.138199 0.28348,0.188989 0.0891,0.04455 0.19439,0.04995 0.28348,0.09449 0.10162,0.05081 0.33104,0.248124 0.47247,0.283483 0.0611,0.01527 0.12788,-0.01527 0.18899,0 0.0683,0.01709 0.12066,0.07741 0.18899,0.09449 0.0917,0.02291 0.19384,-0.02988 0.28348,0 0.0393,0.0131 0.19809,0.137192 0.28348,0.0945 0.0399,-0.01992 0.0522,-0.08041 0.0945,-0.0945 0.0598,-0.01992 0.12787,0.01527 0.18899,0 0.0683,-0.01709 0.12065,-0.07741 0.18898,-0.09449 0.0611,-0.01527 0.13265,0.02817 0.18899,0 0.0797,-0.03984 0.11772,-0.135536 0.18899,-0.18899 0.0563,-0.04226 0.12599,-0.06299 0.18899,-0.09449 0.12599,-0.06299 0.25198,-0.125992 0.37797,-0.188986 0.063,-0.0315 0.13265,-0.05224 0.18899,-0.0945 0.0713,-0.05345 0.11772,-0.135533 0.18899,-0.188987 0.0563,-0.04226 0.13264,-0.05224 0.18899,-0.0945 0.0713,-0.05345 0.12599,-0.125992 0.18899,-0.188986 0.0945,-0.09449 0.18898,-0.18899 0.28348,-0.283483 0.12599,-0.125992 0.26667,-0.238842 0.37798,-0.377976 0.0709,-0.08868 0.10868,-0.203179 0.18898,-0.283482 0.0803,-0.0803 0.20318,-0.108683 0.28348,-0.18899 0.16061,-0.160607 0.23609,-0.389601 0.37798,-0.566962 0.11131,-0.139136 0.25198,-0.251984 0.37798,-0.377976 0.063,-0.063 0.14315,-0.112596 0.18899,-0.188989 0.18067,-0.542025 -0.0278,-0.0574 0.28348,-0.472469 0.12473,-0.166312 0.15875,-0.400656 0.28348,-0.566965 0.0534,-0.07127 0.13553,-0.117716 0.18899,-0.188989 0.0423,-0.05635 0.063,-0.125992 0.0945,-0.188987 0.063,-0.125992 0.11652,-0.257188 0.18899,-0.377976 0.13311,-0.221853 0.19708,-0.256471 0.28348,-0.472471 0.037,-0.09248 0.0575,-0.191 0.0945,-0.283483 0.0523,-0.130789 0.13667,-0.247187 0.18898,-0.377976 0.037,-0.09248 0.0575,-0.191 0.0945,-0.283482 0.0262,-0.06539 0.0807,-0.119923 0.0945,-0.188987 0.0186,-0.09266 -0.0155,-0.190275 0,-0.283482 0.0913,-0.5479 0.17826,-0.0021 0.0945,-0.755952 -0.0143,-0.129077 -0.063,-0.251986 -0.0945,-0.377978 -0.048,-0.191805 -0.10765,-0.47167 -0.18899,-0.661459 -0.0555,-0.129474 -0.13952,-0.246081 -0.18898,-0.377976 -0.0456,-0.121599 -0.0489,-0.256376 -0.0945,-0.377975 -0.15575,-0.415349 -0.17859,-0.312534 -0.37797,-0.661459 -0.10484,-0.183454 -0.17478,-0.385781 -0.28349,-0.566965 -0.46248,-0.770808 0.0671,0.120962 -0.37797,-0.472469 -0.0423,-0.05634 -0.0522,-0.132643 -0.0945,-0.188989 -0.0802,-0.106908 -0.18898,-0.188987 -0.28348,-0.28348 -0.063,-0.063 -0.12599,-0.125995 -0.18899,-0.188989 -0.0315,-0.0315 -0.0574,-0.06978 -0.0945,-0.09449 -0.68514,-0.34257 0.14941,0.0996 -0.28348,-0.18899 -0.11721,-0.07814 -0.26077,-0.110849 -0.37798,-0.188986 -0.0371,-0.02471 -0.0574,-0.06979 -0.0945,-0.0945 -0.0586,-0.03907 -0.126,-0.063 -0.18899,-0.09449 -0.75492,-0.377463 0.37695,0.188473 -0.37798,-0.18899 -0.18612,-0.09306 -0.37382,-0.206227 -0.56696,-0.28348 -0.0925,-0.03699 -0.191,-0.0575 -0.28348,-0.0945 -0.0654,-0.02617 -0.12066,-0.07741 -0.18899,-0.09449 -0.6731,-0.168275 0.47873,0.285988 -0.47247,-0.09449 -0.13079,-0.05232 -0.25199,-0.125992 -0.37798,-0.188989 -0.063,-0.0315 -0.12066,-0.07741 -0.18899,-0.09449 -0.0611,-0.01527 -0.13049,0.02339 -0.18898,0 -0.10545,-0.04218 -0.1861,-0.130558 -0.28349,-0.188989 -0.0604,-0.03624 -0.12359,-0.06834 -0.18898,-0.09449 -0.0925,-0.03699 -0.19101,-0.0575 -0.28349,-0.09449 -0.216,-0.0864 -0.25061,-0.150374 -0.47247,-0.283483 -0.0604,-0.03624 -0.12859,-0.05826 -0.18898,-0.09449 -0.58169,-0.349015 -0.0274,-0.02191 -0.47248,-0.377979 -0.0887,-0.07094 -0.1948,-0.118041 -0.28348,-0.188986 -0.0696,-0.05566 -0.12599,-0.125992 -0.18899,-0.188989 -0.063,-0.063 -0.13333,-0.11942 -0.18898,-0.188987 -0.071,-0.08868 -0.11805,-0.194802 -0.18899,-0.283483 -0.0557,-0.06957 -0.13334,-0.119422 -0.18899,-0.188989 -0.0709,-0.08868 -0.11804,-0.194799 -0.18899,-0.283482 -0.0557,-0.06957 -0.13553,-0.117716 -0.18899,-0.188987 -0.0423,-0.05635 -0.0582,-0.128593 -0.0945,-0.188989 -0.0584,-0.09738 -0.13056,-0.186097 -0.18899,-0.283483 -0.0725,-0.120787 -0.11651,-0.257185 -0.18899,-0.377975 -0.0584,-0.09738 -0.13055,-0.186098 -0.18898,-0.283483 -0.12498,-0.208288 -0.20714,-0.432432 -0.28349,-0.661458 -0.0315,-0.09449 -0.0432,-0.19807 -0.0945,-0.28348 -0.0458,-0.0764 -0.1559,-0.106273 -0.18899,-0.188989 -0.0351,-0.08774 0.0155,-0.190276 0,-0.283483 -0.0164,-0.09825 -0.063,-0.188986 -0.0945,-0.283482 -0.0315,-0.125992 -0.0761,-0.249413 -0.0945,-0.377976 -0.0134,-0.09354 0.0155,-0.190273 0,-0.283483 -0.0164,-0.09825 -0.075,-0.185811 -0.0945,-0.283482 -0.0124,-0.06177 0.0123,-0.127215 0,-0.188987 -0.0195,-0.09767 -0.0781,-0.185232 -0.0945,-0.283482 -0.0155,-0.09321 0,-0.18899 0,-0.283483 0,-0.09449 0,-0.188986 0,-0.283482 0,-0.188987 0,-0.377976 0,-0.566963 0,-0.0945 -0.0134,-0.189939 0,-0.283482 0.0184,-0.128567 0.0761,-0.249412 0.0945,-0.377976 0.0134,-0.09355 -0.0155,-0.190275 0,-0.283483 0.0164,-0.09825 0.0671,-0.187711 0.0945,-0.283482 0.0685,-0.239758 0.0919,-0.434896 0.18899,-0.661458 0.0555,-0.129474 0.1335,-0.248502 0.18899,-0.377976 0.10263,-0.239485 0.12335,-0.542449 0.28348,-0.755955 0.0535,-0.07127 0.13554,-0.117715 0.18899,-0.188986 0.10948,-0.145971 0.17858,-0.40961 0.28348,-0.566965 0.0247,-0.03706 0.0698,-0.05743 0.0945,-0.09449 0.0118,-0.0176 0.18294,-0.371923 0.18899,-0.377976 0.0498,-0.0498 0.14673,-0.03815 0.18899,-0.0945 0.0598,-0.07969 0.0433,-0.19807 0.0945,-0.28348 0.0458,-0.0764 0.12599,-0.125995 0.18898,-0.188989 0.063,-0.063 0.126,-0.125992 0.18899,-0.18899 0.57864,-0.578635 -0.11952,0.15937 0.28348,-0.377975 0.0535,-0.07127 0.13554,-0.117716 0.18899,-0.188987 0.0423,-0.05635 0.063,-0.125992 0.0945,-0.188989 0.0315,-0.063 0.0722,-0.122171 0.0945,-0.188987 0.01,-0.02988 -0.01,-0.06461 0,-0.0945 0.22815,-0.684458 -0.0272,0.148982 0.18899,-0.283482 0.0282,-0.05635 -0.0445,-0.144442 0,-0.188987 0.0223,-0.02228 0.0722,0.02228 0.0945,0 0.0223,-0.02228 0,-0.063 0,-0.09449 0,-0.188989 0,-0.377979 0,-0.566965 0,-0.04941 0.0124,-0.353132 0,-0.377976 -0.0199,-0.03984 -0.0746,-0.05465 -0.0945,-0.0945 -0.0141,-0.02817 0.0141,-0.06632 0,-0.09449 -0.0199,-0.03984 -0.0746,-0.05465 -0.0945,-0.09449 -0.0141,-0.02817 0.0141,-0.06632 0,-0.09449 -0.0199,-0.03984 -0.0746,-0.05465 -0.0945,-0.0945 -0.0141,-0.02817 0.0141,-0.06632 0,-0.09449 -0.0465,-0.09298 -0.33148,-0.284991 -0.37798,-0.377976 -0.0141,-0.02817 0.0223,-0.07222 0,-0.09449 -0.0223,-0.02228 -0.0663,0.01408 -0.0945,0 -0.0722,-0.03609 -0.21949,-0.262154 -0.28348,-0.283483 -0.0598,-0.01992 -0.12923,0.01992 -0.18899,0 -0.0423,-0.01408 -0.0546,-0.07457 -0.0945,-0.0945 -0.0282,-0.01408 -0.0663,0.01408 -0.0945,0 -0.0398,-0.01992 -0.0522,-0.08041 -0.0945,-0.09449 -0.0598,-0.01992 -0.12599,0 -0.18899,0 -0.0315,0 -0.0663,0.01408 -0.0945,0 -0.0398,-0.01992 -0.0546,-0.07457 -0.0945,-0.09449 -0.0594,-0.0297 -0.31858,0.02969 -0.37797,0 -0.0399,-0.01992 -0.0547,-0.07457 -0.0945,-0.09449 -0.1108,-0.0554 -0.11215,0.05607 -0.18899,0.09449 -0.0375,0.01873 -0.26416,-0.01931 -0.28348,0 -0.0223,0.02228 0.0223,0.07222 0,0.09449 -0.0445,0.04454 -0.13264,-0.02817 -0.18899,0 -0.0797,0.03984 -0.1093,0.149146 -0.18899,0.188989 -0.0282,0.01408 -0.0722,-0.02228 -0.0945,0 -0.0223,0.02228 0.0223,0.07222 0,0.09449 -0.0445,0.04454 -0.14444,-0.04454 -0.18899,0 -0.0223,0.02228 0.0223,0.07222 0,0.09449 -0.0223,0.02228 -0.0722,-0.02228 -0.0945,0 -0.0223,0.02228 0.0223,0.07222 0,0.0945 -0.0223,0.02228 -0.0722,-0.02228 -0.0945,0 -0.0223,0.02228 0.0223,0.07222 0,0.09449 -0.0223,0.02228 -0.0722,-0.02228 -0.0945,0 -0.0223,0.02228 0.0223,0.07222 0,0.09449 -0.0223,0.02228 -0.0722,-0.02228 -0.0945,0 -0.0223,0.02228 0.0223,0.07222 0,0.09449 -0.0223,0.02228 -0.0722,-0.02228 -0.0945,0 -0.0223,0.02228 0.0223,0.07222 0,0.0945 -0.0223,0.02228 -0.0722,-0.02228 -0.0945,0 -0.0223,0.02228 0.0223,0.07222 0,0.09449 -0.0223,0.02228 -0.0722,-0.02228 -0.0945,0 -0.0223,0.02228 0.0223,0.07222 0,0.09449 -0.0223,0.02228 -0.0722,-0.02228 -0.0945,0 -0.063,0.06299 0.063,0.126 0,0.18899 -0.0223,0.02228 -0.0722,-0.02228 -0.0945,0 -0.0223,0.02228 0.0223,0.07222 0,0.09449 -0.0223,0.02228 -0.0722,-0.02228 -0.0945,0 -0.0223,0.02228 0.0223,0.07222 0,0.09449 -0.25198,0 0.0315,-0.0315 -0.0945,0.0945 -0.0223,0.02228 -0.0663,-0.01408 -0.0945,0 -0.0398,0.01992 -0.0546,0.07457 -0.0945,0.09449 -0.0282,0.01408 -0.0722,-0.02228 -0.0945,0 -0.0223,0.02228 0.0223,0.07222 0,0.09449 -0.0446,0.04454 -0.14445,-0.04455 -0.18899,0 -0.0223,0.02228 0.0223,0.07222 0,0.0945 -0.0108,0.0108 -0.27001,0.01011 -0.28348,0 -0.10691,-0.08018 -0.18899,-0.18899 -0.28349,-0.283483 z"
       id="path4532"
       inkscape:connector-curvature="0"
       clip-path="url(#clipPath4723)" />
    <path
       style="fill:none;stroke:#000000;stroke-width:0.26458332px;stroke-linecap:butt;stroke-linejoin:miter;stroke-opacity:1"
       d="m 52.53869,83.065476 c 0.442092,-0.195281 0.735322,-0.596789 1.133928,-0.850447 0.178263,-0.113441 0.384452,-0.177017 0.566965,-0.283483 0.587528,-0.342725 1.113364,-0.791205 1.700892,-1.133927 0.182512,-0.106466 0.380926,-0.183309 0.566965,-0.283483 1.682695,-0.906066 -0.427268,0.166386 1.41741,-0.755952 0.453544,-0.226771 1.300435,-0.668096 1.795388,-0.850447 0.308573,-0.113686 0.634839,-0.174035 0.944939,-0.283483 0.226208,-0.07984 0.439645,-0.192145 0.661458,-0.283482 0.313693,-0.129167 0.626615,-0.260697 0.944941,-0.377976 0.560784,-0.206605 1.137332,-0.368059 1.700892,-0.566965 0.253778,-0.08957 0.499084,-0.203211 0.755955,-0.28348 0.247914,-0.07748 0.509542,-0.106852 0.755951,-0.188989 0.853027,-0.284342 0.426858,-0.272079 1.228424,-0.472469 1.13131,-0.282829 0.0027,0.12786 1.133927,-0.283483 0.620728,-0.225721 0.396774,-0.207864 1.13393,-0.377975 0.507526,-0.117124 0.701778,-0.08366 1.228421,-0.18899 0.254696,-0.05094 0.498493,-0.154659 0.755954,-0.188989 0.218551,-0.02914 0.44146,0.01466 0.661458,0 0.506765,-0.03378 1.005002,-0.157305 1.511904,-0.188987 0.251494,-0.01572 0.504317,0.01323 0.755951,0 0.347427,-0.01828 0.692129,-0.07406 1.039437,-0.09449 0.188661,-0.01109 0.377976,0 0.566962,0 0.283483,0 0.566965,0 0.850448,0 0.283482,0 0.567401,-0.01572 0.850445,0 0.284789,0.01582 0.56566,0.07867 0.850447,0.09449 0.534641,0.0297 1.072118,-0.03562 1.6064,0 0.222231,0.01482 0.439647,0.07433 0.661458,0.09449 0.125473,0.0114 0.252608,-0.01254 0.377976,0 0.727585,0.07276 0.461216,0.112993 1.228423,0.283482 0.153739,0.03416 0.317122,-0.0259 0.472469,0 0.09825,0.01638 0.184878,0.08041 0.283483,0.09449 0.124727,0.01781 0.251983,0 0.377975,0 0.157491,0 0.314982,0 0.472472,0 0.251984,0 0.503968,0 0.755952,0 0.251984,0 0.504401,0.01479 0.755951,0 0.512284,0.01302 1.005004,-0.157306 1.511906,-0.188987 0.28293,-0.01767 0.567357,0.0149 0.850445,0 0.60257,-0.01624 1.194546,-0.155609 1.795389,-0.188989 0.53464,-0.0297 1.071856,0.03144 1.606399,0 0.284734,-0.01675 0.565711,-0.07775 0.850445,-0.09449 0.25155,-0.01479 0.503967,0 0.755951,0 0.251987,0 0.503971,0 0.755955,0 0.220485,0 0.44097,0 0.661458,0 0.251984,0 0.504526,-0.01677 0.755951,0 0.222232,0.01482 0.439301,0.07863 0.661459,0.09449 0.439851,0.03142 0.883065,-0.03142 1.322916,0 0.22216,0.01587 0.439301,0.07863 0.661459,0.09449 0.47127,0.03366 0.945986,-0.03143 1.41741,0 0.222231,0.01482 0.439301,0.07863 0.661458,0.0945 0.219927,0.01572 0.440973,0 0.661458,0 0.56697,0 1.13393,0 1.70089,0 0.22049,0 0.44098,0 0.66146,0 0.063,0 0.126,0 0.18899,0 0.0315,0 0.0663,0.01408 0.0945,0 0.0399,-0.01992 0.0547,-0.07457 0.0945,-0.0945 0.0282,-0.01408 0.063,0 0.0945,0 0.0945,0 0.19028,-0.01553 0.28349,0 0.0982,0.01638 0.18487,0.08041 0.28348,0.0945 0.12472,0.01781 0.25275,-0.01392 0.37797,0 0.15963,0.01773 0.31266,0.07851 0.47247,0.09449 0.15671,0.01566 0.31498,0 0.47247,0 0.56697,0 1.13393,0 1.7009,0 1.4804,0 2.96081,0 4.44122,0 1.88334,0 -0.37433,0.03126 1.5119,-0.09449 0.22,-0.01466 0.44097,0 0.66146,0 0.47247,0 0.94494,0 1.41741,0 0.62716,0 0.31778,0 0.94494,0 0.12599,0 0.25325,-0.01781 0.37798,0 0.0986,0.01408 0.18523,0.07812 0.28348,0.09449 0.18642,0.03107 0.38055,-0.03107 0.56696,0 0.0983,0.01638 0.18581,0.07496 0.28348,0.09449 0.0618,0.01236 0.12923,-0.01992 0.18899,0 0.0423,0.01407 0.0522,0.08041 0.0945,0.0945 0.0598,0.01992 0.12922,-0.01992 0.18899,0 0.0423,0.01408 0.0546,0.07457 0.0945,0.09449 0.0282,0.01408 0.063,0 0.0945,0 0.0315,0.0315 0.0546,0.07457 0.0945,0.09449 0.0563,0.02817 0.13264,-0.02817 0.18899,0 0.0398,0.01992 0.0546,0.07457 0.0945,0.09449 0.0249,0.01244 0.32856,0 0.37798,0 0.0315,0 0.063,0 0.0945,0 0.0315,0 0.0722,0.02228 0.0945,0 0.0223,-0.02228 0,-0.06299 0,-0.09449 0,-0.0315 0.0223,-0.07222 0,-0.09449 -0.0223,-0.02228 -0.0722,0.02228 -0.0945,0 -0.0223,-0.02228 0.0223,-0.07222 0,-0.09449 -0.0223,-0.02228 -0.0663,0.01408 -0.0945,0 -0.0399,-0.01992 -0.0547,-0.07458 -0.0945,-0.0945 -0.0282,-0.01408 -0.063,0 -0.0945,0 -0.063,0 -0.12788,0.01527 -0.18899,0 -0.0683,-0.01709 -0.12599,-0.063 -0.18899,-0.09449 -0.12599,0 -0.2537,0.02072 -0.37797,0 -0.0695,-0.01159 -0.12127,-0.07514 -0.18899,-0.09449 -0.2859,-0.08168 -0.56455,-0.107304 -0.85045,-0.188989 -0.65702,-0.187722 0.14489,0.01889 -0.66146,-0.283483 -0.1216,-0.0456 -0.25861,-0.04334 -0.37797,-0.09449 -0.20877,-0.08947 -0.36381,-0.276397 -0.56697,-0.377976 -0.0891,-0.04454 -0.19807,-0.04325 -0.28348,-0.09449 -0.0764,-0.04584 -0.11772,-0.135536 -0.18899,-0.188989 -0.0563,-0.04226 -0.13038,-0.05542 -0.18899,-0.09449 -0.086,-0.05735 -0.19972,-0.241607 -0.28348,-0.283482 -0.0282,-0.01408 -0.0722,0.02228 -0.0945,0 -0.0223,-0.02228 -0.0223,-0.116766 0,-0.09449 0.0498,0.0498 0.0522,0.13264 0.0945,0.188986 0.0535,0.07127 0.12599,0.125992 0.18899,0.188989 0.063,0.063 0.11942,0.133334 0.18899,0.188987 0.26504,0.212037 0.5854,0.354931 0.85045,0.566965 0.0696,0.05566 0.11771,0.135533 0.18898,0.188989 0.11269,0.08452 0.26077,0.11085 0.37798,0.188987 0.0393,0.02619 0.36108,0.34418 0.37798,0.377976 0.0141,0.02817 0.0141,0.06632 0,0.0945 -0.0199,0.03984 -0.0746,0.05465 -0.0945,0.09449 -0.0141,0.02817 0.0223,0.07222 0,0.09449 -0.0223,0.02228 -0.0663,-0.01408 -0.0945,0 -0.0398,0.01992 -0.063,0.063 -0.0945,0.09449 -0.0315,0.0315 -0.063,0.063 -0.0945,0.0945 -0.0315,0.0315 -0.0546,0.07457 -0.0945,0.09449 -0.0282,0.01408 -0.0663,-0.01408 -0.0945,0 -0.40438,0.202189 0.21539,-0.0132 -0.18899,0.188989 -0.0282,0.01408 -0.0722,-0.02228 -0.0945,0 -0.0446,0.04454 0.0445,0.144441 0,0.188986 -0.0223,0.02228 -0.0722,-0.02228 -0.0945,0 -0.0223,0.02228 0.0141,0.06632 0,0.09449 -0.0126,0.02508 -0.2584,0.270938 -0.28349,0.283482 -0.0282,0.01408 -0.0663,-0.01408 -0.0945,0 -0.0398,0.01992 -0.063,0.063 -0.0945,0.0945 -0.0315,0.0315 -0.063,0.063 -0.0945,0.09449 -0.3134,0.313397 0.0891,-0.04454 -0.18899,0.09449 -0.0398,0.01992 -0.0547,0.07457 -0.0945,0.09449 -0.0563,0.02817 -0.13264,-0.02817 -0.18899,0 -0.0398,0.01992 -0.0546,0.07457 -0.0945,0.0945 -0.0282,0.01408 -0.063,0 -0.0945,0 -0.0315,0 -0.0945,0.0315 -0.0945,0 0,-0.04454 0.063,-0.063 0.0945,-0.0945 0.16726,-0.167259 0.15006,-0.169524 0.37798,-0.28348 0.18899,-0.0945 0.37797,-0.188989 0.56696,-0.283482 0.063,-0.0315 0.1236,-0.06834 0.18899,-0.0945 0.0925,-0.03699 0.191,-0.0575 0.28348,-0.09449 0.0654,-0.02617 0.11993,-0.08068 0.18899,-0.09449 0.0927,-0.01852 0.19082,0.01852 0.28348,0 0.0691,-0.01381 0.126,-0.063 0.18899,-0.09449 0.0945,-0.0315 0.18581,-0.07496 0.28348,-0.0945 0.0618,-0.01236 0.12599,0 0.18899,0 0.0945,-0.0315 0.18685,-0.07034 0.28348,-0.09449 0.0642,-0.01603 0.21931,0.01603 0.28348,0 0.0683,-0.01709 0.12066,-0.07741 0.18899,-0.09449 0.12538,-0.03135 0.45572,0.03708 0.56697,0 0.0423,-0.01408 0.0547,-0.07457 0.0945,-0.0945 0.0282,-0.01407 0.063,0 0.0945,0 0.0315,0 0.063,0 0.0945,0"
       id="path4534"
       inkscape:connector-curvature="0"
       clip-path="url(#clipPath4719)" />
    <path
       style="fill:none;stroke:#000000;stroke-width:0.26458332px;stroke-linecap:butt;stroke-linejoin:miter;stroke-opacity:1"
       d="m 81.359374,60.292411 c -0.535466,0 -1.070933,0 -1.606399,0 -0.09449,0 -0.190273,-0.01553 -0.283483,0 -0.09825,0.01638 -0.185232,0.07812 -0.283482,0.09449 -0.09321,0.01553 -0.190823,-0.01852 -0.28348,0 -0.138128,0.02763 -0.241319,0.154823 -0.377979,0.188989 -0.06111,0.01527 -0.129222,-0.01992 -0.188986,0 -0.04226,0.01408 -0.05743,0.06978 -0.09449,0.09449 -0.0586,0.03907 -0.139187,0.04469 -0.18899,0.09449 -0.0498,0.0498 -0.05542,0.130386 -0.09449,0.188989 -0.02471,0.03706 -0.06979,0.05743 -0.0945,0.09449 -0.03907,0.0586 -0.05542,0.130384 -0.09449,0.188989 -0.02471,0.03706 -0.08041,0.05223 -0.09449,0.09449 -0.01992,0.05976 0.01236,0.127214 0,0.188986 -0.01953,0.09767 -0.07496,0.185812 -0.09449,0.283483 -0.01236,0.06177 0.01236,0.127217 0,0.188989 -0.01953,0.09767 -0.08041,0.184878 -0.0945,0.283482 -0.01781,0.124725 0,0.251984 0,0.377976 0,0.251984 0,0.503968 0,0.755952 0,0.472472 0,0.944941 0,1.41741 0,0.125992 0,0.251984 0,0.377978 0,0.125992 -0.01564,0.252955 0,0.377976 0.01611,0.128865 0.07613,0.249412 0.0945,0.377976 0.135639,0.949473 -0.177736,-0.582681 0,0.661458 0.01408,0.09861 0.07812,0.185232 0.09449,0.283483 0.03107,0.186415 -0.03107,0.380547 0,0.566962 0.01638,0.09825 0.07812,0.185232 0.09449,0.283483 0.03107,0.186417 -0.03107,0.380547 0,0.566965 0.01638,0.09825 0.07496,0.185811 0.09449,0.283482 0.01236,0.06177 -0.01527,0.127873 0,0.188987 0.01709,0.06833 0.07741,0.12066 0.0945,0.188989 0.03218,0.128715 -0.03811,0.452647 0,0.566965 0.01408,0.04226 0.07457,0.05465 0.09449,0.09449 0.01241,0.02485 0,0.328563 0,0.377976"
       id="path4542"
       inkscape:connector-curvature="0"
       clip-path="url(#clipPath4715)" />
    <path
       style="fill:none;stroke:#000000;stroke-width:0.26458332px;stroke-linecap:butt;stroke-linejoin:miter;stroke-opacity:1"
       d="m 78.052082,66.434522 c 0.598464,0 1.196925,0 1.795386,0 0.0945,0 0.188989,0 0.283483,0 0.0315,0 0.07222,-0.02228 0.0945,0 0.02228,0.02228 -0.02228,0.07222 0,0.0945 0.02228,0.02228 0.06299,0 0.09449,0 0.15749,0 0.314981,0 0.472469,0"
       id="path4544"
       inkscape:connector-curvature="0"
       clip-path="url(#clipPath4711)" />
    <path
       style="fill:none;stroke:#000000;stroke-width:0.26458332px;stroke-linecap:butt;stroke-linejoin:miter;stroke-opacity:1"
       d="m 82.965773,69.269345 c 0,0.314978 0,0.629959 0,0.94494 0,0.09449 -0.01553,0.190273 0,0.283483 0.01638,0.09825 0.07812,0.185229 0.09449,0.28348 0.01553,0.09321 0,0.188989 0,0.283482 0,0.314981 0,0.62996 0,0.944941"
       id="path4546"
       inkscape:connector-curvature="0"
       clip-path="url(#clipPath4707)" />
    <path
       style="fill:#ff0000;stroke:#000000;stroke-width:0.26458332px;stroke-linecap:butt;stroke-linejoin:miter;stroke-opacity:1;fill-opacity:0.39751554"
       d="m 108.10119,102.24777 c -0.20521,0.17172 -0.16447,0.45318 -0.28348,0.66146 -0.0781,0.13674 -0.20001,0.24442 -0.28349,0.37797 -0.0747,0.11945 -0.12599,0.25199 -0.18898,0.37798 -0.56544,1.13086 0.22528,-0.47673 -0.37798,0.85044 -0.17487,0.38471 -0.40443,0.74385 -0.56696,1.13393 -0.0766,0.18389 -0.11748,0.38103 -0.18899,0.56697 -0.0861,0.22389 -0.19737,0.43756 -0.28348,0.66146 -0.14303,0.37186 -0.22474,0.76615 -0.37798,1.13392 -0.53203,1.27688 -0.0664,-0.0773 -0.47247,1.03944 -0.0789,0.21699 -0.25441,0.81701 -0.37798,1.03943 -0.0765,0.13767 -0.20699,0.24031 -0.28348,0.37798 -0.0824,0.14828 -0.10483,0.3252 -0.18899,0.47247 -0.0442,0.0773 -0.13957,0.11486 -0.18898,0.18899 -0.15628,0.23441 -0.21423,0.5267 -0.37798,0.75595 -0.0777,0.10874 -0.20936,0.17229 -0.28348,0.28348 -0.0553,0.0829 -0.0433,0.19807 -0.0945,0.28348 -0.0917,0.15279 -0.26667,0.23884 -0.37797,0.37798 -0.0709,0.0887 -0.11805,0.1948 -0.18899,0.28348 -0.0557,0.0696 -0.13554,0.11772 -0.18899,0.18899 -0.0423,0.0564 -0.0505,0.13399 -0.0945,0.18899 -0.0835,0.10435 -0.18899,0.18899 -0.28349,0.28348 -0.18898,0.18899 -0.39302,0.36404 -0.56696,0.56696 -0.10249,0.11958 -0.17977,0.25946 -0.28348,0.37798 -0.11734,0.13409 -0.25199,0.25198 -0.37798,0.37798 -0.28348,0.28348 -0.56696,0.56696 -0.85044,0.85044 -0.220492,0.22049 -0.440977,0.44098 -0.661462,0.66146 -0.0945,0.0945 -0.180822,0.19793 -0.283483,0.28348 -0.08725,0.0727 -0.196238,0.11629 -0.283482,0.18899 -0.27264,0.2272 -0.483314,0.52875 -0.755952,0.75595 -0.08725,0.0727 -0.203179,0.10869 -0.283482,0.18899 -0.08031,0.0803 -0.108683,0.20318 -0.188989,0.28348 -0.0803,0.0803 -0.203177,0.10869 -0.283483,0.18899 -0.0803,0.0803 -0.118041,0.1948 -0.188987,0.28349 -0.05566,0.0696 -0.135535,0.11771 -0.188989,0.18898 -0.04226,0.0564 -0.06299,0.12599 -0.09449,0.18899 -0.0315,0.063 -0.063,0.12599 -0.09449,0.18899 -0.063,0.12599 -0.125992,0.25198 -0.18899,0.37797 -0.0315,0.063 -0.07741,0.12066 -0.09449,0.18899 -0.01527,0.0611 0.01236,0.12722 0,0.18899 -0.01953,0.0977 -0.07812,0.18523 -0.0945,0.28348 -0.01154,0.0692 -0.01154,0.78127 0,0.85045 0.01638,0.0983 0.07034,0.18685 0.0945,0.28348 0.03895,0.15582 0.05965,0.31569 0.09449,0.47247 0.02817,0.12678 0.06632,0.2512 0.09449,0.37798 0.03484,0.15678 0.05037,0.31804 0.0945,0.47247 0.01934,0.0677 0.06675,0.12425 0.09449,0.18899 0.06682,0.1559 0.125992,0.31498 0.188987,0.47247 0.063,0.15749 0.129431,0.31364 0.188989,0.47247 0.03498,0.0933 0.05526,0.19193 0.09449,0.28348 0.05549,0.12947 0.136673,0.24719 0.188989,0.37797 0.07399,0.18497 0.0999,0.38879 0.188987,0.56697 0.03984,0.0797 0.149148,0.1093 0.188989,0.18899 0.05808,0.11616 0.04334,0.25861 0.09449,0.37797 0.04474,0.10439 0.125992,0.18899 0.18899,0.28349 0.06299,0.0945 0.125992,0.18898 0.188986,0.28348 0.125995,0.18899 0.251987,0.37798 0.377979,0.56696 0.06299,0.0945 0.118041,0.1948 0.188986,0.28348 0.05566,0.0696 0.125992,0.126 0.188989,0.18899 0.09449,0.0945 0.188987,0.18899 0.283483,0.28348 0.063,0.063 0.11942,0.13334 0.188987,0.18899 0.08868,0.0709 0.194802,0.11805 0.283482,0.18899 0.06957,0.0557 0.125996,0.12599 0.188996,0.18899 0.12599,0.12599 0.25198,0.25198 0.37797,0.37797 0.063,0.063 0.11772,0.13554 0.18899,0.18899 0.11269,0.0845 0.26529,0.10447 0.37797,0.18899 0.0713,0.0534 0.1126,0.14315 0.18899,0.18899 0.0854,0.0512 0.19808,0.0433 0.28349,0.0945 0.0764,0.0458 0.11259,0.14316 0.18898,0.18899 0.0854,0.0512 0.1944,0.0499 0.28349,0.0945 0.10157,0.0508 0.1819,0.1382 0.28348,0.18898 0.0891,0.0445 0.19439,0.0499 0.28348,0.0945 0.20316,0.10158 0.3722,0.26111 0.56697,0.37797 0.0604,0.0362 0.12599,0.063 0.18898,0.0945 0.0945,0.063 0.1861,0.13056 0.28348,0.18899 0.0604,0.0362 0.13039,0.0554 0.18899,0.0945 0.0741,0.0494 0.11486,0.13957 0.18899,0.18899 0.0586,0.0391 0.13039,0.0554 0.18899,0.0945 0.0741,0.0494 0.1093,0.14915 0.18899,0.18899 0.0282,0.0141 0.0722,-0.0223 0.0945,0 0.0223,0.0223 -0.0223,0.0722 0,0.0945 0.0223,0.0223 0.0722,-0.0223 0.0945,0 0.0223,0.0223 -0.0223,0.0722 0,0.0945 0.0223,0.0223 0.0663,-0.0141 0.0945,0 0.0398,0.0199 0.0574,0.0698 0.0945,0.0945 0.0586,0.0391 0.13039,0.0554 0.18899,0.0945 0.21709,0.14472 -0.0405,0.054 0.18899,0.28348 0.0996,0.0996 0.26528,0.10447 0.37798,0.18899 0.0713,0.0534 0.12599,0.12599 0.18898,0.18899 0.0945,0.0315 0.19808,0.0432 0.28349,0.0945 0.0764,0.0458 0.11259,0.14315 0.18898,0.18899 0.0854,0.0512 0.1944,0.0499 0.28349,0.0945 0.10157,0.0508 0.18609,0.13056 0.28348,0.18899 0.23312,0.13987 0.50409,0.18903 0.75595,0.28348 0.15882,0.0596 0.30791,0.14785 0.47247,0.18899 0.0917,0.0229 0.18899,0 0.28348,0 0.12599,0 0.25276,-0.0139 0.37798,0 0.58504,0.065 0.35291,0.1537 0.94494,0.0945 0.15981,-0.016 0.31266,-0.0785 0.47247,-0.0945 0.15671,-0.0157 0.3162,0.0195 0.47247,0 0.0988,-0.0124 0.18899,-0.063 0.28348,-0.0945 0.15749,-0.0315 0.31285,-0.0768 0.47247,-0.0945 0.12522,-0.0139 0.25276,0.0139 0.37798,0 0.15963,-0.0177 0.31284,-0.0768 0.47247,-0.0945 0.12522,-0.0139 0.25325,0.0178 0.37798,0 0.0986,-0.0141 0.18898,-0.063 0.28348,-0.0945 0.12599,-0.0315 0.24911,-0.0784 0.37797,-0.0945 0.12502,-0.0156 0.25296,0.0156 0.37798,0 0.12887,-0.0161 0.25198,-0.063 0.37798,-0.0945 0.25198,-0.063 0.5062,-0.11763 0.75595,-0.18898 0.0958,-0.0274 0.18771,-0.0671 0.28348,-0.0945 0.83056,-0.2373 -0.0182,0.0376 0.66146,-0.18898 0.0945,-0.0315 0.18899,-0.063 0.28348,-0.0945 0.0945,-0.0315 0.18581,-0.075 0.28348,-0.0945 0.0618,-0.0124 0.12788,0.0153 0.18899,0 0.0613,-0.0153 0.50675,-0.24334 0.56696,-0.28349 0.0371,-0.0247 0.0589,-0.0678 0.0945,-0.0945 0.0908,-0.0681 0.20318,-0.10868 0.28348,-0.18899 0.0498,-0.0498 0.0522,-0.13264 0.0945,-0.18899 0.0534,-0.0713 0.13333,-0.11942 0.18898,-0.18898 0.0709,-0.0887 0.11805,-0.1948 0.18899,-0.28348 0.13914,-0.17393 0.32989,-0.30137 0.47247,-0.47248 0.14541,-0.17449 0.23016,-0.39451 0.37798,-0.56696 0.40574,-0.47337 0.34495,-0.24955 0.66146,-0.75595 0.90061,-1.44099 -0.70424,0.91462 0.47247,-0.85045 0.0874,-0.13104 0.19194,-0.24982 0.28348,-0.37798 0.19803,-0.27724 0.38639,-0.56153 0.56696,-0.85044 0.26114,-0.41782 -0.16289,0.064 0.37798,-0.56697 0.087,-0.10146 0.19793,-0.18082 0.28348,-0.28348 0.0727,-0.0872 0.11628,-0.19623 0.18899,-0.28348 0.77402,-0.92882 -0.17634,0.27083 0.56696,-0.47247 0.0803,-0.0803 0.10869,-0.20318 0.18899,-0.28348 0.0803,-0.0803 0.1948,-0.11805 0.28348,-0.18899 0.0696,-0.0556 0.11943,-0.13333 0.18899,-0.18899 0.0887,-0.0709 0.1948,-0.11804 0.28349,-0.18899 0.13913,-0.11131 0.23883,-0.26667 0.37797,-0.37797 0.0887,-0.0709 0.1948,-0.11804 0.28348,-0.18899 0.13914,-0.11131 0.23544,-0.27107 0.37798,-0.37798 0.0563,-0.0423 0.13264,-0.0522 0.18899,-0.0945 0.14254,-0.10691 0.23884,-0.26667 0.37797,-0.37798 0.0887,-0.0709 0.1948,-0.11804 0.28349,-0.18898 0.0696,-0.0557 0.12599,-0.126 0.18898,-0.18899 0.063,-0.063 0.13334,-0.11942 0.18899,-0.18899 0.14189,-0.17736 0.25199,-0.37798 0.37798,-0.56697 0.063,-0.0945 0.1382,-0.1819 0.18899,-0.28348 0.0445,-0.0891 0.0499,-0.19439 0.0945,-0.28348 0.0821,-0.16427 0.20135,-0.3082 0.28348,-0.47247 0.0891,-0.17818 0.11052,-0.38386 0.18899,-0.56696 0.0555,-0.12948 0.13953,-0.24609 0.18899,-0.37798 0.0456,-0.1216 0.0489,-0.25638 0.0945,-0.37798 0.0495,-0.13189 0.13953,-0.24608 0.18899,-0.37797 0.0456,-0.1216 0.0433,-0.25861 0.0945,-0.37798 0.0447,-0.10438 0.13819,-0.1819 0.18898,-0.28348 0.0446,-0.0891 0.0553,-0.19193 0.0945,-0.28348 0.0555,-0.12948 0.1335,-0.24851 0.18898,-0.37798 0.0392,-0.0915 0.0553,-0.19193 0.0945,-0.28348 0.0555,-0.12947 0.13953,-0.24608 0.18899,-0.37798 0.0456,-0.1216 0.063,-0.25198 0.0945,-0.37798 0.0315,-0.12599 0.0663,-0.25119 0.0945,-0.37797 0.0422,-0.18984 0.17531,-0.87532 0.18898,-1.03944 0.0157,-0.18833 -0.0157,-0.37862 0,-0.56696 0.0159,-0.19093 0.0754,-0.37632 0.0945,-0.56696 0.0125,-0.12537 -0.0125,-0.25261 0,-0.37798 0.0191,-0.19064 0.0772,-0.37616 0.0945,-0.56696 0.0143,-0.15685 -0.0157,-0.31577 0,-0.47248 0.016,-0.15981 0.0768,-0.31284 0.0945,-0.47246 0.0567,-0.51027 -0.0709,-0.28349 0,-0.85045 0.0123,-0.0988 0.0804,-0.18488 0.0945,-0.28348 0.0178,-0.12473 0,-0.25199 0,-0.37798 0,-0.31498 0,-0.62996 0,-0.94494 0,-0.31498 0,-0.62996 0,-0.94494 0,-0.12599 0.0178,-0.25325 0,-0.37798 -0.0141,-0.0986 -0.0804,-0.18488 -0.0945,-0.28348 -0.0178,-0.12472 0.0178,-0.25325 0,-0.37798 -0.0348,-0.24375 -0.1079,-0.26973 -0.18899,-0.47247 -0.037,-0.0925 -0.0575,-0.191 -0.0945,-0.28348 -0.0864,-0.216 -0.15037,-0.25062 -0.28348,-0.47247 -0.0362,-0.0604 -0.0522,-0.13264 -0.0945,-0.18899 -0.0535,-0.0713 -0.13554,-0.11771 -0.18899,-0.18898 -0.0423,-0.0564 -0.0554,-0.13039 -0.0945,-0.18899 -0.0741,-0.11119 -0.2033,-0.17658 -0.28348,-0.28348 -0.20696,-0.27595 0.0472,-0.12999 -0.28348,-0.37798 -0.0563,-0.0423 -0.13264,-0.0522 -0.18899,-0.0945 -0.14254,-0.10691 -0.22519,-0.28631 -0.37797,-0.37798 -0.0854,-0.0513 -0.1944,-0.05 -0.28349,-0.0945 -0.10157,-0.0508 -0.1861,-0.13055 -0.28348,-0.18898 -0.0604,-0.0362 -0.12599,-0.063 -0.18898,-0.0945 -0.126,-0.063 -0.24851,-0.1335 -0.37798,-0.18898 -0.0915,-0.0392 -0.1944,-0.0499 -0.28348,-0.0945 -0.10158,-0.0508 -0.18191,-0.1382 -0.28349,-0.18899 -0.15171,-0.0759 -0.32075,-0.11313 -0.47247,-0.18899 -0.10157,-0.0508 -0.17909,-0.14425 -0.28348,-0.18898 -0.11937,-0.0512 -0.25477,-0.0534 -0.37798,-0.0945 -0.16091,-0.0536 -0.31364,-0.12943 -0.47246,-0.18899 -0.0933,-0.035 -0.19022,-0.0595 -0.28349,-0.0945 -0.15882,-0.0596 -0.31155,-0.13535 -0.47247,-0.18899 -0.1232,-0.0411 -0.25198,-0.063 -0.37797,-0.0945 -0.25199,-0.063 -0.50397,-0.12599 -0.75596,-0.18899 -0.12599,-0.0315 -0.2586,-0.0433 -0.37797,-0.0945 -0.10439,-0.0447 -0.1791,-0.14425 -0.28348,-0.18899 -0.11937,-0.0512 -0.25311,-0.0588 -0.37798,-0.0945 -0.19155,-0.0547 -0.3737,-0.14067 -0.56697,-0.18898 -0.15581,-0.039 -0.31568,-0.0597 -0.47246,-0.0945 -0.25356,-0.0563 -0.50621,-0.11763 -0.75596,-0.18899 -0.0958,-0.0274 -0.18771,-0.0671 -0.28348,-0.0945 -0.24974,-0.0714 -0.50397,-0.12599 -0.75595,-0.18899 -0.126,-0.0315 -0.24911,-0.0784 -0.37798,-0.0945 -0.12502,-0.0156 -0.25325,0.0178 -0.37797,0 -0.0986,-0.0141 -0.18899,-0.063 -0.28349,-0.0945 -0.12599,-0.0315 -0.24941,-0.0761 -0.37797,-0.0945 -0.0936,-0.0134 -0.19028,0.0155 -0.28349,0 -0.0983,-0.0164 -0.18898,-0.063 -0.28348,-0.0945 -0.15749,-0.0315 -0.3131,-0.0746 -0.47247,-0.0945 -0.18753,-0.0234 -0.37987,0.0267 -0.56696,0 -0.12857,-0.0184 -0.24911,-0.0784 -0.37798,-0.0945 -0.21878,-0.0273 -0.44097,0 -0.66146,0 -0.18899,0 -0.37797,0 -0.56696,0 -0.0945,0 -0.19082,0.0185 -0.28348,0 -0.0691,-0.0138 -0.11993,-0.0807 -0.18899,-0.0945 -0.15143,-0.0303 -0.32104,0.0303 -0.47247,0 -0.0977,-0.0195 -0.18581,-0.075 -0.28348,-0.0945 -0.0618,-0.0124 -0.12599,0 -0.18899,0 -0.18899,0 -0.37798,0 -0.56697,0 -0.0945,0 -0.19027,0.0155 -0.28348,0 -0.0983,-0.0164 -0.18523,-0.0781 -0.28348,-0.0945 -0.15535,-0.0259 -0.31498,0 -0.47247,0 -0.25198,0 -0.50397,0 -0.75595,0 -0.0347,0 -0.37418,-0.004 -0.37798,0 -0.0223,0.0223 0.0223,0.0722 0,0.0945 -0.0472,0.0472 -0.23623,-0.0473 -0.28348,0 -0.0223,0.0223 0.0141,0.0663 0,0.0945 -0.0199,0.0399 -0.0746,0.0547 -0.0945,0.0945 -0.0141,0.0282 0.0141,0.0663 0,0.0945 -0.0199,0.0398 -0.0746,0.0546 -0.0945,0.0945 -0.0141,0.0282 0,0.063 0,0.0945 0,0.0315 0,0.063 0,0.0945 0,0.0636 -0.0173,0.33482 0,0.37798 0.0523,0.13079 0.12599,0.25198 0.18899,0.37798 z"
       id="path4550"
       inkscape:connector-curvature="0"
       clip-path="url(#clipPath4703)" />
    <path
       style="fill:#ffffff;fill-opacity:1;stroke:#000000;stroke-width:0.26458332px;stroke-linecap:butt;stroke-linejoin:miter;stroke-opacity:1"
       d="m 124.12646,111.46442 c -0.11168,0.31154 -0.3201,0.0437 -0.47247,0.0945 -0.0668,0.0223 -0.12217,0.0722 -0.18899,0.0945 -0.0299,0.01 -0.0646,-0.01 -0.0945,0 -0.0668,0.0223 -0.12066,0.0774 -0.18899,0.0945 -0.0611,0.0153 -0.12922,-0.0199 -0.18898,0 -0.0423,0.0141 -0.0522,0.0804 -0.0945,0.0945 -0.0598,0.0199 -0.12923,-0.0199 -0.18899,0 -0.0423,0.0141 -0.0547,0.0746 -0.0945,0.0945 -0.0756,0.0378 -0.20789,-0.0378 -0.28348,0 -0.0399,0.0199 -0.0522,0.0804 -0.0945,0.0945 -0.0432,0.0144 -0.33593,-0.021 -0.37797,0 -0.0399,0.0199 -0.0547,0.0746 -0.0945,0.0945 -0.0563,0.0282 -0.13264,-0.0282 -0.18899,0 -0.0398,0.0199 -0.0546,0.0746 -0.0945,0.0945 -0.0288,0.0144 -0.24093,0 -0.28348,0 -0.21349,0 0.0423,-0.0141 -0.28349,0.0945 -0.0598,0.0199 -0.13264,-0.0282 -0.18898,0 -0.0399,0.0199 -0.0547,0.0746 -0.0945,0.0945 -0.0282,0.0141 -0.0663,-0.0141 -0.0945,0 -0.0398,0.0199 -0.0522,0.0804 -0.0945,0.0945 -0.0598,0.0199 -0.12923,-0.0199 -0.18899,0 -0.0423,0.0141 -0.0547,0.0746 -0.0945,0.0945 -0.0282,0.0141 -0.0663,-0.0141 -0.0945,0 -0.0398,0.0199 -0.0546,0.0746 -0.0945,0.0945 -0.0563,0.0282 -0.13264,-0.0282 -0.18898,0 -0.0399,0.0199 -0.0547,0.0746 -0.0945,0.0945 -0.0282,0.0141 -0.0663,-0.0141 -0.0945,0 -0.0398,0.0199 -0.0546,0.0746 -0.0945,0.0945 -0.0282,0.0141 -0.0663,-0.0141 -0.0945,0 -0.0398,0.0199 -0.0546,0.0746 -0.0945,0.0945 -0.0282,0.0141 -0.063,0 -0.0945,0 -0.0315,0.0315 -0.0547,0.0746 -0.0945,0.0945 -0.0282,0.0141 -0.0722,-0.0223 -0.0945,0 -0.0223,0.0223 0.0223,0.0722 0,0.0945 -0.0445,0.0445 -0.13264,-0.0282 -0.18898,0 -0.0797,0.0398 -0.10931,0.14914 -0.18899,0.18898 -0.0282,0.0141 -0.0663,-0.0141 -0.0945,0 -0.0398,0.0199 -0.063,0.063 -0.0945,0.0945 -0.0315,0.0315 -0.063,0.063 -0.0945,0.0945 -0.0945,0.0945 -0.18898,0.18899 -0.28348,0.28348 -0.0315,0.0315 -0.0698,0.0574 -0.0945,0.0945 -0.0391,0.0586 -0.0554,0.13038 -0.0945,0.18899 -0.23195,0.34792 0.043,-0.15894 -0.18899,0.18898 -0.0781,0.11721 -0.126,0.25199 -0.18899,0.37798 -0.063,0.12599 -0.14444,0.24434 -0.18899,0.37798 -0.01,0.0299 0.01,0.0646 0,0.0945 -0.0223,0.0668 -0.0722,0.12217 -0.0945,0.18899 -0.01,0.0299 0.01,0.0646 0,0.0945 -0.0223,0.0668 -0.0722,0.12217 -0.0945,0.18899 -0.0182,0.0547 0,0.29609 0,0.37798 0,0.28348 0,0.56696 0,0.85044 0,0.18899 0,0.37798 0,0.56697 0,0.063 0,0.12599 0,0.18898 0,0.063 -0.0153,0.12788 0,0.18899 0.0171,0.0683 0.0807,0.11993 0.0945,0.18899 0.0183,0.0917 0,0.64383 0,0.75595 0,0.063 -0.0153,0.12788 0,0.18899 0.0171,0.0683 0.0807,0.11993 0.0945,0.18899 0.0309,0.15443 0,0.31498 0,0.47247 0,0.063 -0.0153,0.12787 0,0.18899 0.0171,0.0683 0.0807,0.11992 0.0945,0.18899 0.0309,0.15443 -0.0309,0.31804 0,0.47247 0.0195,0.0977 0.075,0.18581 0.0945,0.28348 0.0247,0.12354 -0.0247,0.25443 0,0.37798 0.0195,0.0977 0.075,0.18581 0.0945,0.28348 0.0124,0.0618 -0.0153,0.12787 0,0.18898 0.0342,0.13666 0.14445,0.24435 0.18899,0.37798 0.01,0.0299 -0.01,0.0646 0,0.0945 0.0223,0.0668 0.0722,0.12217 0.0945,0.18898 0.01,0.0299 0,0.063 0,0.0945 0.0315,0.063 0.0722,0.12217 0.0945,0.18899 0.01,0.0299 -0.0141,0.0663 0,0.0945 0.3134,0.3134 -0.0446,-0.0891 0.0945,0.18899 0.0399,0.0797 0.14915,0.1093 0.18899,0.18899 0.0141,0.0282 -0.0141,0.0663 0,0.0945 0.0199,0.0398 0.0746,0.0547 0.0945,0.0945 0.0282,0.0563 -0.0282,0.13265 0,0.18899 0.0199,0.0398 0.0746,0.0547 0.0945,0.0945 0.0141,0.0282 -0.0141,0.0663 0,0.0945 0.0199,0.0398 0.0746,0.0547 0.0945,0.0945 0.0282,0.0563 -0.0282,0.13264 0,0.18898 0.0199,0.0399 0.0746,0.0547 0.0945,0.0945 0.0141,0.0282 0,0.063 0,0.0945 0,0.063 0,0.12599 0,0.18899 0,0.0315 0.01,0.0646 0,0.0945 -0.0223,0.0668 -0.0722,0.12217 -0.0945,0.18899 -0.0938,0.28129 0.22375,-0.19388 -0.0945,0.28348 -0.0247,0.0371 -0.063,0.063 -0.0945,0.0945 -0.0315,0.063 -0.0554,0.13038 -0.0945,0.18899 -0.0494,0.0741 -0.13957,0.11486 -0.18899,0.18898 -0.0391,0.0586 -0.0447,0.13919 -0.0945,0.18899 -0.0498,0.0498 -0.13039,0.0554 -0.18899,0.0945 -0.0371,0.0247 -0.0574,0.0698 -0.0945,0.0945 -0.68514,0.34257 0.14941,-0.0996 -0.28348,0.18899 -0.0586,0.0391 -0.13919,0.0447 -0.18899,0.0945 -0.0498,0.0498 -0.0359,0.14992 -0.0945,0.18899 -0.0524,0.0349 -0.12922,-0.0199 -0.18899,0 -0.0423,0.0141 -0.0574,0.0698 -0.0945,0.0945 -0.0586,0.0391 -0.13038,0.0554 -0.18899,0.0945 -0.0371,0.0247 -0.0546,0.0746 -0.0945,0.0945 -0.0282,0.0141 -0.0663,-0.0141 -0.0945,0 -0.0399,0.0199 -0.0547,0.0746 -0.0945,0.0945 -0.0282,0.0141 -0.0646,-0.01 -0.0945,0 -0.0668,0.0223 -0.12218,0.0722 -0.18899,0.0945 -0.0299,0.01 -0.0663,-0.0141 -0.0945,0 -0.0398,0.0199 -0.0522,0.0804 -0.0945,0.0945 -0.0598,0.0199 -0.12921,-0.0199 -0.18899,0 -0.0423,0.0141 -0.0547,0.0746 -0.0945,0.0945 -0.0563,0.0282 -0.12923,-0.0199 -0.18899,0 -0.0668,0.0223 -0.12217,0.0722 -0.18899,0.0945 -0.0761,0.0253 -0.31759,-0.0302 -0.37797,0 -0.0399,0.0199 -0.0547,0.0746 -0.0945,0.0945 -0.0266,0.0133 -0.58922,0 -0.66146,0 -0.43016,0 -0.005,-0.0446 -0.28348,0.0945 -0.007,0.003 -0.54088,0.009 -0.56696,0 -0.0423,-0.0141 -0.0547,-0.0746 -0.0945,-0.0945 -0.0622,-0.0311 -0.47958,0.0291 -0.56696,0 -0.0423,-0.0141 -0.0522,-0.0804 -0.0945,-0.0945 -0.11953,-0.0398 -0.25845,0.0398 -0.37798,0 -0.0423,-0.0141 -0.063,-0.063 -0.0945,-0.0945 -0.063,0 -0.12922,0.0199 -0.18898,0 -0.0845,-0.0282 -0.10447,-0.16082 -0.18899,-0.18899 -0.0598,-0.0199 -0.12923,0.0199 -0.18899,0 -0.0431,-0.0144 -0.24093,-0.24093 -0.28348,-0.28348 -0.0556,-0.0556 -0.3561,-0.33422 -0.37798,-0.37798 -0.0141,-0.0282 0.0141,-0.0663 0,-0.0945 -0.19663,-0.39326 0.007,0.10102 -0.18899,-0.0945 -0.0223,-0.0223 0.0141,-0.0663 0,-0.0945 -0.0199,-0.0398 -0.0746,-0.0547 -0.0945,-0.0945 -0.0141,-0.0282 0.0141,-0.0663 0,-0.0945 -0.21623,-0.43246 0.0392,0.40098 -0.18899,-0.28348 -0.01,-0.0299 0.0141,-0.0663 0,-0.0945 -0.21623,-0.43247 0.0392,0.40097 -0.18899,-0.28349 -0.0938,-0.28129 0.22375,0.19389 -0.0945,-0.28348 -0.0247,-0.0371 -0.0804,-0.0522 -0.0945,-0.0945 -0.0199,-0.0598 0.0153,-0.12788 0,-0.18899 -0.0171,-0.0683 -0.0722,-0.12217 -0.0945,-0.18899 -0.01,-0.0299 0.01,-0.0646 0,-0.0945 -0.0223,-0.0668 -0.0722,-0.12217 -0.0945,-0.18899 -0.0284,-0.085 0.0283,-0.19844 0,-0.28348 -0.0141,-0.0423 -0.0804,-0.0522 -0.0945,-0.0945 -0.0299,-0.0896 0.0299,-0.19384 0,-0.28348 -0.0223,-0.0668 -0.0774,-0.12066 -0.0945,-0.18899 -0.0229,-0.0917 0.0299,-0.19384 0,-0.28348 -0.0223,-0.0668 -0.0774,-0.12066 -0.0945,-0.18899 -0.0192,-0.0768 0,-0.46804 0,-0.56696 0,-0.0315 0.01,-0.0646 0,-0.0945 -0.0223,-0.0668 -0.0722,-0.12217 -0.0945,-0.18899 -0.0298,-0.0896 0.0298,-0.38291 0,-0.47246 -0.0223,-0.0668 -0.0722,-0.12218 -0.0945,-0.18899 -0.0204,-0.0612 0,-0.6529 0,-0.75596 0,-0.0676 -0.0161,-0.51859 0,-0.56696 0.0141,-0.0423 0.0746,-0.0546 0.0945,-0.0945 0.0141,-0.0282 -0.0141,-0.0663 0,-0.0945 0.0199,-0.0398 0.0746,-0.0546 0.0945,-0.0945 0.0141,-0.0282 -0.0141,-0.0663 0,-0.0945 0.0398,-0.0797 0.14914,-0.1093 0.18898,-0.18898 0.0141,-0.0282 -0.0223,-0.0722 0,-0.0945 0.0223,-0.0223 0.0663,0.0141 0.0945,0 0.11339,-0.0567 0.17009,-0.22678 0.28348,-0.28348 0.0282,-0.0141 0.0663,0.0141 0.0945,0 0.0338,-0.0169 0.35178,-0.33868 0.37798,-0.37798 0.0391,-0.0586 0.0554,-0.13038 0.0945,-0.18898 0.0247,-0.0371 0.0804,-0.0522 0.0945,-0.0945 0.0199,-0.0598 -0.0199,-0.12921 0,-0.18899 0.0141,-0.0423 0.0804,-0.0522 0.0945,-0.0945 0.0199,-0.0598 -0.0153,-0.12787 0,-0.18899 0.0342,-0.13666 0.14444,-0.24434 0.18899,-0.37797 0.01,-0.0299 -0.01,-0.0646 0,-0.0945 0.0223,-0.0668 0.0722,-0.12217 0.0945,-0.18899 0.01,-0.0299 -0.0141,-0.0663 0,-0.0945 0.0199,-0.0398 0.0746,-0.0547 0.0945,-0.0945 0.0282,-0.0563 -0.0282,-0.13264 0,-0.18898 0.0398,-0.0797 0.14914,-0.10931 0.18899,-0.18899 0.0141,-0.0282 -0.0141,-0.0663 0,-0.0945 0.31339,-0.31339 -0.0446,0.0891 0.0945,-0.18898 0.0199,-0.0399 0.0746,-0.0547 0.0945,-0.0945 0.0282,-0.0563 -0.0282,-0.13264 0,-0.18898 0.0199,-0.0398 0.0746,-0.0547 0.0945,-0.0945 0.0141,-0.0282 0,-0.063 0,-0.0945 0,-0.0928 -0.0208,-0.50447 0,-0.56697 0.0223,-0.0668 0.0722,-0.12217 0.0945,-0.18899 0.0192,-0.0576 0,-0.49398 0,-0.56696 0,-0.0315 0,-0.063 0,-0.0945 0,-0.0315 -0.0141,-0.0663 0,-0.0945 0.0199,-0.0398 0.0746,-0.0547 0.0945,-0.0945 0.0293,-0.0587 -0.0303,-0.50642 0,-0.56697 0.0199,-0.0398 0.0746,-0.0546 0.0945,-0.0945 0.0378,-0.0756 -0.0378,-0.20789 0,-0.28348 0.0199,-0.0398 0.0746,-0.0547 0.0945,-0.0945 0.0282,-0.0563 -0.0199,-0.12922 0,-0.18899 0.0223,-0.0668 0.0722,-0.12216 0.0945,-0.18898 0.01,-0.0299 -0.0141,-0.0663 0,-0.0945 0.0199,-0.0398 0.0746,-0.0546 0.0945,-0.0945 0.0141,-0.0282 -0.0141,-0.0663 0,-0.0945 0.0199,-0.0398 0.0746,-0.0547 0.0945,-0.0945 0.0141,-0.0282 -0.0141,-0.0663 0,-0.0945 0.3134,-0.3134 -0.0446,0.0891 0.0945,-0.18899 0.0199,-0.0398 0.0746,-0.0546 0.0945,-0.0945 0.0141,-0.0282 -0.0141,-0.0663 0,-0.0945 0.0199,-0.0398 0.0746,-0.0546 0.0945,-0.0945 0.0141,-0.0282 -0.0141,-0.0663 0,-0.0945 0.0199,-0.0398 0.0698,-0.0574 0.0945,-0.0945 0.34257,-0.68514 -0.0996,0.14941 0.18899,-0.28348 0.1163,-0.17446 0.16718,-0.39252 0.28348,-0.56697 0.0247,-0.0371 0.0698,-0.0574 0.0945,-0.0945 0.0781,-0.11721 0.11085,-0.26077 0.18899,-0.37798 0.0247,-0.0371 0.0746,-0.0547 0.0945,-0.0945 0.0141,-0.0282 -0.0141,-0.0663 0,-0.0945 0.0199,-0.0398 0.0746,-0.0546 0.0945,-0.0945 0.0141,-0.0282 -0.0141,-0.0663 0,-0.0945 0.0199,-0.0398 0.0746,-0.0546 0.0945,-0.0945 0.0141,-0.0282 -0.0223,-0.0722 0,-0.0945 0.0223,-0.0223 0.0722,0.0223 0.0945,0 0.0223,-0.0223 -0.0141,-0.0663 0,-0.0945 0.0199,-0.0398 0.0746,-0.0546 0.0945,-0.0945 0.0282,-0.0564 -0.0446,-0.14444 0,-0.18899 0.0223,-0.0223 0.0722,0.0223 0.0945,0 0.0223,-0.0223 -0.0141,-0.0663 0,-0.0945 0.0199,-0.0398 0.0746,-0.0547 0.0945,-0.0945 0.0141,-0.0282 -0.0141,-0.0663 0,-0.0945 0.0252,-0.0505 0.23374,-0.23374 0.28348,-0.28348 0.0315,-0.0315 0.063,-0.063 0.0945,-0.0945 0.0315,-0.0315 0.0546,-0.0746 0.0945,-0.0945 0.0282,-0.0141 0.0663,0.0141 0.0945,0 0.0797,-0.0398 0.1093,-0.14915 0.18899,-0.18899 0.0563,-0.0282 0.14444,0.0446 0.18898,0 0.0223,-0.0223 -0.0223,-0.0722 0,-0.0945 0.0332,-0.0332 0.4072,0.0326 0.47247,0 0.0399,-0.0199 0.0547,-0.0746 0.0945,-0.0945 0.0594,-0.0297 0.31858,0.0297 0.37797,0 0.0399,-0.0199 0.0522,-0.0804 0.0945,-0.0945 0.0541,-0.0181 0.38376,0 0.47247,0 0.18899,0 0.37797,0 0.56696,0 0.0945,0 0.19181,-0.0229 0.28349,0 0.0683,0.0171 0.12065,0.0774 0.18898,0.0945 0.0611,0.0153 0.12599,0 0.18899,0 0.18899,0 0.37798,0 0.56696,0 0.063,0 0.126,0 0.18899,0 0.0315,0 0.0646,-0.01 0.0945,0 0.0668,0.0223 0.12066,0.0774 0.18899,0.0945 0.0917,0.0229 0.18898,0 0.28348,0 0.12599,0 0.25198,0 0.37797,0 0.063,0 0.126,0 0.18899,0 0.0315,0 0.0663,-0.0141 0.0945,0 0.0398,0.0199 0.0522,0.0804 0.0945,0.0945 0.0432,0.0144 0.33593,-0.021 0.37798,0 0.0398,0.0199 0.0522,0.0804 0.0945,0.0945 0.0598,0.0199 0.12599,0 0.18899,0 0.0315,0 0.0663,-0.0141 0.0945,0 0.0399,0.0199 0.0522,0.0804 0.0945,0.0945 0.0598,0.0199 0.12922,-0.0199 0.18898,0 0.0423,0.0141 0.0547,0.0746 0.0945,0.0945 0.0282,0.0141 0.0646,-0.01 0.0945,0 0.68446,0.22816 -0.14898,-0.0272 0.28349,0.18899 0.0282,0.0141 0.0663,-0.0141 0.0945,0 0.0797,0.0398 0.1093,0.14915 0.18899,0.18899 0.0282,0.0141 0.0663,-0.0141 0.0945,0 0.0797,0.0398 0.1093,0.14915 0.18899,0.18899 0.0282,0.0141 0.063,0 0.0945,0 0.063,0.0315 0.13039,0.0554 0.18899,0.0945 0.0371,0.0247 0.063,0.063 0.0945,0.0945 0.0945,0.0945 0.18898,0.18898 0.28348,0.28348 0.0315,0.0315 0.0547,0.0746 0.0945,0.0945 0.0282,0.0141 0.0663,-0.0141 0.0945,0 0.0398,0.0199 0.0574,0.0698 0.0945,0.0945 0.0586,0.0391 0.13039,0.0554 0.18899,0.0945 0.0371,0.0247 0.0547,0.0746 0.0945,0.0945 0.0282,0.0141 0.0663,-0.0141 0.0945,0 0.39326,0.19663 -0.10102,-0.007 0.0945,0.18899 0.0223,0.0223 0.0663,-0.0141 0.0945,0 0.0399,0.0199 0.0547,0.0746 0.0945,0.0945 0.0282,0.0141 0.0722,-0.0223 0.0945,0 0.0223,0.0223 -0.0223,0.0722 0,0.0945 0.0223,0.0223 0.0722,-0.0223 0.0945,0 0.0223,0.0223 -0.0223,0.0722 0,0.0945 0.0223,0.0223 0.0722,-0.0223 0.0945,0 0.004,0.004 0,0.34328 0,0.37798 0,0.0542 -0.0186,0.34701 0,0.37798 0.081,0.13504 0.18899,0.25198 0.28348,0.37797 z"
       id="path4548"
       inkscape:connector-curvature="0"
       clip-path="url(#clipPath4699)" />
    <path
       style="fill:none;stroke:#000000;stroke-width:0.26458332px;stroke-linecap:butt;stroke-linejoin:miter;stroke-opacity:1"
       d="m 50.837798,120.10714 c 0.391448,0.17156 0.822994,0.17291 1.22842,0.28348 0.192194,0.0524 0.381032,0.11748 0.566965,0.18899 0.223894,0.0861 0.435552,0.2028 0.661459,0.28348 0.21595,0.0771 0.445222,0.11267 0.661458,0.18899 0.319905,0.11291 0.626613,0.2607 0.944941,0.37798 0.280392,0.1033 0.566965,0.18899 0.850448,0.28348 0.283479,0.0945 0.564231,0.19762 0.850444,0.28348 1.660338,0.4981 0.469707,0.11763 2.456847,0.47247 0.827384,0.14775 1.631495,0.40824 2.456844,0.56697 1.320525,0.25394 1.074444,0.14791 2.362351,0.28348 0.895358,0.0943 0.552789,0.13631 1.606399,0.18899 0.314587,0.0157 0.62996,0 0.944941,0 0.283483,0 0.567455,0.0166 0.850445,0 0.253508,-0.0149 0.50397,-0.063 0.755954,-0.0945 0.251984,-0.0315 0.504235,-0.0609 0.755952,-0.0945 0.220771,-0.0294 0.440973,-0.063 0.661458,-0.0945 0.220485,-0.0315 0.443677,-0.0478 0.661458,-0.0945 0.448437,-0.0961 0.876044,-0.27485 1.322917,-0.37797 0.186687,-0.0431 0.38109,-0.048 0.566965,-0.0945 0.193262,-0.0483 0.3737,-0.14067 0.566963,-0.18899 0.185875,-0.0465 0.381089,-0.048 0.566965,-0.0945 0.386527,-0.0966 0.753125,-0.26081 1.13393,-0.37798 0.773972,-0.23814 0.594436,-0.15852 1.41741,-0.37797 0.221567,-0.0591 0.436602,-0.14402 0.661458,-0.18899 0.249012,-0.0498 0.506939,-0.0447 0.755952,-0.0945 0.224856,-0.045 0.440229,-0.12865 0.661458,-0.18898 0.307816,-0.084 0.627599,-0.15726 0.944941,-0.18899 0.125367,-0.0125 0.251984,0 0.377975,0 0.125992,-0.0315 0.249413,-0.0761 0.377976,-0.0945 0.09355,-0.0134 0.19181,0.0229 0.283483,0 0.04321,-0.0108 0.05465,-0.0746 0.09449,-0.0945 0.02817,-0.0141 0.063,0 0.0945,0 0.0315,0 0.063,0 0.09449,0 0.09449,0 0.18899,0 0.283483,0 0.06299,0 0.126849,0.0103 0.188986,0 0.128104,-0.0214 0.251987,-0.063 0.377979,-0.0945 0.157488,0 0.315627,0.0143 0.472469,0 0.190807,-0.0173 0.377597,-0.0654 0.566965,-0.0945 0.440269,-0.0677 0.886116,-0.10163 1.322917,-0.18899 0.254696,-0.0509 0.501255,-0.13805 0.755951,-0.18898 0.218401,-0.0437 0.439648,-0.0743 0.661459,-0.0945 0.125476,-0.0114 0.254431,0.0247 0.377975,0 0.195342,-0.0391 0.373703,-0.14067 0.566965,-0.18899 0.185876,-0.0465 0.37909,-0.0569 0.566965,-0.0945 0.127347,-0.0255 0.251199,-0.0663 0.377976,-0.0945 0.438428,-0.0974 0.447157,-0.0738 0.850445,-0.18898 0.09577,-0.0274 0.187711,-0.0671 0.283483,-0.0945 0.416999,-0.11914 0.298955,-0.053 0.661458,-0.18899 0.158821,-0.0596 0.313648,-0.12942 0.472472,-0.18898 0.09326,-0.035 0.191929,-0.0553 0.28348,-0.0945 0.129476,-0.0555 0.246083,-0.13953 0.377978,-0.18898 0.1216,-0.0456 0.256373,-0.0489 0.377976,-0.0945 0.131895,-0.0495 0.24434,-0.14444 0.377976,-0.18899 0.152365,-0.0508 0.316656,-0.0555 0.472469,-0.0945 0.09663,-0.0242 0.187711,-0.0671 0.283482,-0.0945 0.249746,-0.0714 0.501259,-0.13805 0.755952,-0.18898 0.187875,-0.0376 0.379934,-0.0529 0.566965,-0.0945 0.48464,-0.10769 0.08521,-0.10667 0.661458,-0.18899 0.09355,-0.0134 0.189939,0.0134 0.283483,0 0.128564,-0.0184 0.249412,-0.0761 0.377976,-0.0945 0.09355,-0.0134 0.188989,0 0.283482,0 0.125992,-0.0315 0.249873,-0.0731 0.377976,-0.0945 0.06214,-0.0104 0.125992,0 0.188989,0 0.09449,0 0.188987,0 0.283483,0 0.06299,0 0.127873,0.0153 0.188986,0 0.06833,-0.0171 0.122172,-0.0722 0.18899,-0.0945 0.0521,-0.0174 0.357772,0.0202 0.377975,0 0.02228,-0.0223 0,-0.063 0,-0.0945 0,-0.0315 0,-0.063 0,-0.0945 0,-0.0315 0.02228,-0.0722 0,-0.0945 -0.06691,-0.0669 -0.420806,-0.17423 -0.472471,-0.18899 -0.124873,-0.0357 -0.253582,-0.0572 -0.377976,-0.0945 -0.19081,-0.0572 -0.3737,-0.14067 -0.566963,-0.18899 -0.185875,-0.0465 -0.380277,-0.0514 -0.566965,-0.0945 -0.223438,-0.0516 -0.439891,-0.1299 -0.661458,-0.18898 -0.250971,-0.0669 -0.503968,-0.12599 -0.755952,-0.18899 -0.125992,-0.0315 -0.250629,-0.069 -0.377978,-0.0945 -0.187873,-0.0376 -0.382119,-0.0441 -0.566962,-0.0945 -0.163645,-0.0446 -0.311553,-0.13535 -0.472472,-0.18899 -0.123203,-0.0411 -0.253103,-0.0588 -0.377976,-0.0945 -0.09577,-0.0274 -0.191,-0.0575 -0.283483,-0.0945 -0.06539,-0.0262 -0.120657,-0.0774 -0.188986,-0.0945 -0.06112,-0.0153 -0.132644,0.0282 -0.188989,0 -0.02817,-0.0141 0.02228,-0.0722 0,-0.0945 -0.02228,-0.0223 -0.09449,-0.0315 -0.09449,0 0,0.0445 0.08041,0.0522 0.09449,0.0945 0.01992,0.0598 -0.03241,0.13497 0,0.18899 0.165639,0.27606 0.340685,0.2839 0.566965,0.47247 0.617156,0.5143 -0.0587,0.0358 0.566965,0.66146 0.11136,0.11136 0.2584,0.18099 0.377976,0.28348 0.101462,0.087 0.188986,0.18899 0.283482,0.28348 0.28348,0.28348 0.566962,0.56697 0.850445,0.85045 0.09449,0.0945 0.197932,0.18082 0.283482,0.28348 0.0727,0.0872 0.118044,0.1948 0.18899,0.28348 0.05565,0.0696 0.125992,0.12599 0.188986,0.18899 0.063,0.063 0.117716,0.13553 0.18899,0.18899 0.112691,0.0845 0.26077,0.11085 0.377975,0.18899 0.08602,0.0573 0.199729,0.2416 0.283483,0.28348 0.05635,0.0282 0.144441,-0.0446 0.188986,0 0.02228,0.0223 0.02228,0.0722 0,0.0945 -0.029,0.029 -0.307834,-0.0175 -0.377975,0 -0.06833,0.0171 -0.120658,0.0774 -0.188987,0.0945 -0.07186,0.018 -0.393343,0 -0.472472,0 -0.0315,0 -0.06299,0 -0.09449,0 -0.0315,0 -0.06632,0.0141 -0.09449,0 -0.144103,-0.072 -0.0945,-0.24832 -0.0945,-0.37798 0,-0.0315 -0.02228,-0.0722 0,-0.0945 0.02228,-0.0223 0.07222,0.0223 0.0945,0 0.02228,-0.0223 -0.01408,-0.0663 0,-0.0945 0.104465,-0.20893 0.05864,-0.0293 0.188986,-0.0945 0.08375,-0.0419 0.197464,-0.22614 0.283483,-0.28348 0.117205,-0.0781 0.257188,-0.11652 0.377976,-0.18899 0.09738,-0.0584 0.1861,-0.13056 0.283482,-0.18899 0.294415,-0.17665 0.12418,-0.005 0.472469,-0.28348 0.06957,-0.0557 0.119423,-0.13334 0.188989,-0.18899 0.08868,-0.0709 0.203179,-0.10868 0.283483,-0.18899 0.0803,-0.0803 0.118044,-0.1948 0.188987,-0.28348 0.11131,-0.13913 0.27107,-0.23543 0.377978,-0.37798 0.08452,-0.11269 0.11085,-0.26077 0.188987,-0.37797 0.05734,-0.086 0.241607,-0.19973 0.283482,-0.28349 0.01408,-0.0282 0,-0.063 0,-0.0945"
       id="path4569"
       inkscape:connector-curvature="0"
       clip-path="url(#clipPath4695)" />
    <path
       style="fill:none;stroke:#000000;stroke-width:0.26458332px;stroke-linecap:butt;stroke-linejoin:miter;stroke-opacity:1"
       d="m 64.633927,126.53274 c -0.31056,0.12438 -0.6213,0.0945 -0.944939,0.0945 -0.063,0 -0.129225,-0.0199 -0.188989,0 -0.04226,0.0141 -0.05223,0.0804 -0.09449,0.0945 -0.05976,0.0199 -0.125992,0 -0.188989,0 -0.063,0.0315 -0.122172,0.0722 -0.188987,0.0945 -0.281294,0.0938 0.193881,-0.22375 -0.283482,0.0945 -0.03707,0.0247 -0.063,0.063 -0.0945,0.0945 -0.0315,0.0315 -0.06978,0.0574 -0.09449,0.0945 -0.03907,0.0586 -0.05542,0.13039 -0.09449,0.18899 -0.04942,0.0741 -0.13957,0.11486 -0.188989,0.18899 -0.318244,0.47736 -7.94e-4,0.002 -0.09449,0.28348 -0.04455,0.13363 -0.144444,0.24434 -0.18899,0.37798 -0.0099,0.0299 0,0.063 0,0.0945 -0.0315,0.0945 -0.0575,0.191 -0.09449,0.28348 -0.267687,0.53538 0.03522,-0.14086 -0.09449,0.37798 -0.01709,0.0683 -0.08068,0.11992 -0.09449,0.18899 -0.01855,0.0926 0.01852,0.19082 0,0.28348 -0.01381,0.0691 -0.07741,0.12066 -0.0945,0.18899 -0.03056,0.12222 0.02471,0.25443 0,0.37797 -0.01953,0.0977 -0.07496,0.18581 -0.09449,0.28348 -0.02471,0.12355 0,0.25199 0,0.37798 0,0.22049 0,0.44097 0,0.66146 0,0.12599 -0.02471,0.25443 0,0.37797 0.01953,0.0977 0.07812,0.18524 0.09449,0.28349 0.01553,0.0932 0,0.18899 0,0.28348 0,0.18899 0,0.37797 0,0.56696 0,0.0945 -0.01852,0.19083 0,0.28349 0.136755,0.68376 0.0945,-0.43187 0.0945,0.47247 0,0.11212 -0.01834,0.66424 0,0.75595 0.122667,0.61333 0.09449,-0.2106 0.09449,0.37798 0,0.15748 0,0.31497 0,0.47246 0,0.0315 0,0.063 0,0.0945 0,0.0315 -0.01408,0.0663 0,0.0945 0.01992,0.0398 0.07457,0.0546 0.09449,0.0945 0.02817,0.0563 -0.04454,0.14444 0,0.18898 0.02228,0.0223 0.07222,-0.0223 0.09449,0 0.02228,0.0223 -0.01408,0.0663 0,0.0945 0.01992,0.0398 0.07458,0.0547 0.0945,0.0945 0.02817,0.0564 -0.02817,0.13265 0,0.18899 0.01992,0.0398 0.07457,0.0547 0.09449,0.0945 0.063,0.12599 -0.09449,0.0945 0.09449,0.0945"
       id="path4571"
       inkscape:connector-curvature="0"
       clip-path="url(#clipPath4691)" />
    <path
       style="fill:none;stroke:#000000;stroke-width:0.26458332px;stroke-linecap:butt;stroke-linejoin:miter;stroke-opacity:1"
       d="m 62.082589,132.58035 c 0.220888,0.29218 0.509588,0.0329 0.755952,0.0945 0.06833,0.0171 0.12066,0.0774 0.188989,0.0945 0.08043,0.0201 0.418224,-0.0271 0.472469,0 0.03984,0.0199 0.05465,0.0746 0.09449,0.0945 0.02817,0.0141 0.063,0 0.0945,0 0.0315,0 0.063,0 0.09449,0"
       id="path4573"
       inkscape:connector-curvature="0"
       clip-path="url(#clipPath4687)" />
    <path
       style="fill:none;stroke:#000000;stroke-width:0.26458332px;stroke-linecap:butt;stroke-linejoin:miter;stroke-opacity:1"
       d="m 66.712798,135.98214 c -0.125992,0.12599 -0.251984,0.25199 -0.377976,0.37798 0,0.0315 0.01408,0.0663 0,0.0945 -0.01992,0.0398 -0.07457,0.0547 -0.0945,0.0945 -0.02788,0.0558 0.02167,0.21849 0,0.28349 -0.02228,0.0668 -0.07222,0.12217 -0.09449,0.18899 -0.01,0.0299 0,0.063 0,0.0945 0,0.063 0,0.12599 0,0.18899 0,0.063 0,0.12599 0,0.18899 0,0.063 -0.01527,0.12787 0,0.18898 0.01709,0.0683 0.07741,0.12066 0.09449,0.18899 0.01529,0.0611 -0.01527,0.12787 0,0.18899 0.03417,0.13666 0.144444,0.24434 0.188989,0.37798 0.01,0.0299 -0.0099,0.0646 0,0.0945 0.04454,0.13364 0.154824,0.24132 0.188987,0.37798 0.01527,0.0611 -0.01992,0.12922 0,0.18898 0.02133,0.064 0.24739,0.2113 0.283482,0.28349 0.01408,0.0282 -0.02228,0.0722 0,0.0945 0.02228,0.0223 0.07222,-0.0223 0.0945,0 0.02228,0.0223 -0.02228,0.0722 0,0.0945 0.04454,0.0445 0.144441,-0.0445 0.188987,0 0.02228,0.0223 -0.02228,0.0722 0,0.0945 0.02228,0.0223 0.063,0 0.09449,0 0.0315,0 0.06632,0.0141 0.0945,0 0.03984,-0.0199 0.05465,-0.0746 0.09449,-0.0945 0.05635,-0.0282 0.132644,0.0282 0.188989,0 0.03984,-0.0199 0.05223,-0.0804 0.09449,-0.0945 0.05976,-0.0199 0.129225,0.0199 0.188986,0 0.04226,-0.0141 0.05743,-0.0698 0.0945,-0.0945 0.0586,-0.0391 0.130384,-0.0554 0.188987,-0.0945 0.139046,-0.0927 0.238932,-0.28528 0.377976,-0.37797 0.05861,-0.0391 0.139186,-0.0447 0.188989,-0.0945 0.02228,-0.0223 -0.01408,-0.0663 0,-0.0945 0.02524,-0.0505 0.233735,-0.23374 0.283482,-0.28348 0.125992,-0.126 0.251984,-0.25199 0.377976,-0.37798 0.0315,-0.0315 0.063,-0.063 0.09449,-0.0945 0.0315,-0.0315 0.07457,-0.0547 0.0945,-0.0945 0.01408,-0.0282 -0.02228,-0.0722 0,-0.0945 0.02228,-0.0223 0.07222,0.0223 0.09449,0 0.04454,-0.0446 -0.04455,-0.14445 0,-0.18899 0.02228,-0.0223 0.07222,0.0223 0.09449,0 0.01333,-0.0133 0.0097,-0.2641 0,-0.28348 -0.01992,-0.0398 -0.07457,-0.0547 -0.09449,-0.0945 -0.01873,-0.0375 0.01931,-0.26416 0,-0.28348 -0.02228,-0.0223 -0.07222,0.0223 -0.09449,0 -0.02228,-0.0223 0.01408,-0.0663 0,-0.0945 -0.01992,-0.0398 -0.063,-0.063 -0.0945,-0.0945 -0.0315,-0.0315 -0.06299,-0.063 -0.09449,-0.0945 -0.313396,-0.3134 0.08909,0.0445 -0.188989,-0.0945 -0.07968,-0.0398 -0.109302,-0.14914 -0.188987,-0.18898 -0.02817,-0.0141 -0.06632,0.0141 -0.09449,0 -0.03984,-0.0199 -0.05224,-0.0804 -0.0945,-0.0945 -0.08505,-0.0284 -0.198437,0.0283 -0.283482,0 -0.06682,-0.0223 -0.122169,-0.0722 -0.188987,-0.0945 -0.05976,-0.0199 -0.129225,0.0199 -0.188989,0 -0.06681,-0.0223 -0.122169,-0.0722 -0.188987,-0.0945 -0.05634,-0.0188 -0.475414,0 -0.566965,0 -0.0315,0 -0.06299,0 -0.09449,0 -0.0315,0 -0.07222,-0.0223 -0.0945,0 -0.02228,0.0223 0.02228,0.0722 0,0.0945 -0.02228,0.0223 -0.063,0 -0.09449,0 -0.235358,0 -0.06632,0.0141 -0.472469,-0.18899 z"
       id="path4575"
       inkscape:connector-curvature="0"
       clip-path="url(#clipPath4683)" />
  </g>
</svg>
